<svg width="54" height="54" viewBox="0 0 54 54" fill="none" xmlns="http://www.w3.org/2000/svg">
<mask id="mask0_265_269" style="mask-type:luminance" maskUnits="userSpaceOnUse" x="2" y="2" width="50" height="50">
<path d="M2 2H52V52H2V2Z" fill="white"/>
</mask>
<g mask="url(#mask0_265_269)">
<path d="M10.8542 1.35898H43.1458C48.0417 1.35898 52 5.52287 52 10.6731V43.3269C52 48.4771 48.0417 52.641 43.1458 52.641H10.8542C5.95833 52.641 2 48.4771 2 43.3269V10.6731C2 5.52287 5.95833 1.35898 10.8542 1.35898Z" fill="#00005B"/>
<path d="M22.0834 32.0406H14.3334L12.75 37.2126C12.7084 37.4098 12.5417 37.5413 12.3542 37.5195H8.43754C8.20837 37.5195 8.14587 37.3878 8.20837 37.1248L14.9167 16.897L15.125 16.2178C15.2084 15.7575 15.25 15.2754 15.25 14.7932C15.2292 14.6836 15.3125 14.5739 15.4167 14.5522H15.4792H20.8125C20.9584 14.5522 21.0625 14.618 21.0834 14.7274L28.6875 37.081C28.75 37.3222 28.6875 37.4316 28.4792 37.4316H24.125C23.9792 37.4537 23.8334 37.344 23.7917 37.1906L22.0834 31.931V32.0406ZM15.5417 27.6793H20.8334L20.3542 26.1015L19.7917 24.2167L19.1875 22.2004L18.625 20.25L18.1667 18.5406H18.125C17.9375 19.4829 17.7084 20.4252 17.4167 21.3678L16.4584 24.6111C16.1875 25.7289 15.8542 26.759 15.5417 27.6793ZM40.9584 30.0682H34.3542C34.4375 30.7475 34.6459 31.4269 35 32.0186C35.375 32.6103 35.8959 33.0705 36.5209 33.3336C37.3542 33.7062 38.2709 33.9034 39.1875 33.8814C39.9167 33.8596 40.6459 33.7938 41.3542 33.6404C42 33.5528 42.625 33.3774 43.2084 33.1363C43.3125 33.0487 43.375 33.0925 43.375 33.3116V36.6648C43.375 36.7524 43.3542 36.84 43.3334 36.9278C43.2917 36.9934 43.25 37.0372 43.1875 37.0812C42.5209 37.3878 41.8334 37.6071 41.1042 37.7385C40.125 37.9359 39.1459 38.0235 38.1459 38.0015C36.5625 38.0015 35.2292 37.7385 34.1459 37.2344C33.125 36.7744 32.2292 36.0511 31.5209 35.1526C30.8542 34.2979 30.375 33.3336 30.0834 32.2816C29.7917 31.2515 29.6459 30.1778 29.6459 29.0821C29.6459 27.8985 29.8125 26.737 30.1667 25.5975C30.5 24.5017 31.0209 23.4936 31.7292 22.5951C32.4167 21.7184 33.2709 21.0171 34.25 20.5131C35.2292 20.009 36.3959 19.8338 37.7292 19.8338C38.8334 19.8118 39.9375 20.031 40.9584 20.5131C41.8125 20.9075 42.5625 21.4992 43.1459 22.2663C43.6875 23.0113 44.125 23.8442 44.3959 24.7645C44.6667 25.6413 44.7917 26.5398 44.7917 27.4383C44.7917 27.9643 44.7709 28.4246 44.75 28.8408L44.6667 29.7613C44.6459 29.9148 44.5209 30.0462 44.375 30.0462C44.25 30.0462 44.0209 30.0682 43.6875 30.0902C43.3542 30.134 42.9584 30.1558 42.4792 30.1558C42 30.1558 41.5 30.0682 40.9584 30.0682ZM34.3542 26.8686H38.75C39.2917 26.8686 39.6875 26.8686 39.9375 26.8466C40.1042 26.8248 40.2709 26.7808 40.4167 26.6714V26.4522C40.4176 26.1767 40.3754 25.903 40.2917 25.6413C39.9167 24.4139 38.8125 23.5812 37.5834 23.625C36.4375 23.5592 35.3542 24.1949 34.8125 25.2906C34.5625 25.7947 34.4167 26.3207 34.3542 26.8686Z" fill="#9999FF"/>
</g>
</svg>
