<svg width="615" height="361" viewBox="0 0 615 361" fill="none" xmlns="http://www.w3.org/2000/svg">
<path d="M500.85 68.9419H136.14C127.254 68.9419 120.05 76.1457 120.05 85.032V300.461C120.05 309.347 127.254 316.551 136.14 316.551H500.85C509.736 316.551 516.94 309.347 516.94 300.461V85.032C516.94 76.1457 509.736 68.9419 500.85 68.9419Z" fill="url(#paint0_linear_40_121)" fill-opacity="0.2" stroke="url(#paint1_linear_40_121)" stroke-width="4"/>
<path opacity="0.2" d="M118.262 102.91H518.727" stroke="#1A1A1A" stroke-width="3"/>
<path d="M435.595 95.7588C440.038 95.7588 443.64 92.1569 443.64 87.7138C443.64 83.2706 440.038 79.6687 435.595 79.6687C431.152 79.6687 427.55 83.2706 427.55 87.7138C427.55 92.1569 431.152 95.7588 435.595 95.7588Z" fill="#FFB3B3"/>
<path d="M461.518 95.7588C465.961 95.7588 469.563 92.1569 469.563 87.7138C469.563 83.2706 465.961 79.6687 461.518 79.6687C457.075 79.6687 453.473 83.2706 453.473 87.7138C453.473 92.1569 457.075 95.7588 461.518 95.7588Z" fill="#FFF845"/>
<path d="M487.441 95.7588C491.884 95.7588 495.486 92.1569 495.486 87.7138C495.486 83.2706 491.884 79.6687 487.441 79.6687C482.998 79.6687 479.396 83.2706 479.396 87.7138C479.396 92.1569 482.998 95.7588 487.441 95.7588Z" fill="#ABD464"/>
<mask id="mask0_40_121" style="mask-type:luminance" maskUnits="userSpaceOnUse" x="245" y="140" width="240" height="175">
<path d="M484.491 140.342H245.821V314.651H484.491V140.342Z" fill="white"/>
</mask>
<g mask="url(#mask0_40_121)">
<path d="M434.54 167.51C434.54 167.51 419.529 155.04 381.016 160.259C342.503 165.477 328.581 180.683 327.43 182.022C327.43 182.022 307.673 194.467 308.8 237.823L309.683 291.276C309.683 291.276 313.223 385.065 408.139 370.133C502.93 355.365 478.659 265.864 478.659 265.864L466.832 220.11C466.832 220.11 454.955 177.159 434.54 167.51Z" fill="#F9591A"/>
<path d="M335.545 352.146C335.545 352.146 339.458 298.042 395.057 287.845C450.656 277.648 469.931 334.677 469.931 334.677C469.931 334.677 457.526 361.072 408.275 371.149C359.024 381.226 335.545 352.146 335.545 352.146Z" fill="#ECD136"/>
<path d="M357.454 301.97C357.454 301.97 399.203 331.534 394.872 345.44C390.399 347.378 386.012 348.861 381.877 350.013C353.99 357.195 335.291 347.001 324.902 338.05C318.202 332.299 314.962 326.966 314.962 326.966C314.962 326.966 304.817 301.258 317.976 291.336C331.135 281.413 357.454 301.97 357.454 301.97Z" fill="#F9591A"/>
<path d="M356.053 303.639C363.915 309.233 371.565 315.448 378.549 322.198C383.327 326.878 388.786 332.206 391.562 338.489C391.99 339.467 392.788 340.986 392.801 342.169C392.534 344.573 392.562 343.682 390.461 344.558C384.613 347.274 377.715 348.801 371.447 349.503C351.807 352.015 332.321 344.74 319.591 329.446C313.586 322.268 310.342 305.985 315.924 296.941C324.634 282.59 346.811 296.604 356.053 303.639C358.363 305.398 361.001 301.933 358.691 300.174C348.768 292.491 331.484 281.81 318.744 288.272C305.734 294.919 307.262 316.022 312.637 327.28C320.26 343.118 341.594 353.103 358.054 354.424C364.336 354.905 370.789 354.475 376.999 353.337C381.901 352.377 392.074 350.999 395.584 347.415C399.51 343.628 395.89 336.571 393.303 332.778C384.872 319.713 371.154 309.14 358.71 300.32C356.4 298.56 353.762 302.026 356.053 303.639Z" fill="#A03C06"/>
<path d="M324.736 311.731C320.781 319.666 324.881 337.905 324.881 337.905L324.736 311.731Z" fill="#A03C06"/>
<path d="M322.709 310.969C319.083 319.157 320.832 329.871 322.72 338.346C323.385 341.068 327.746 340.477 327.081 337.755C325.435 329.987 323.495 320.039 326.783 312.637C327.901 309.97 323.827 308.303 322.709 310.969Z" fill="#A03C06"/>
<path d="M434.919 291.471C434.919 291.471 402.548 331.078 410.425 343.33C415.253 344.009 419.877 344.27 424.17 344.28C452.838 343.947 468.147 329.146 475.904 317.588C480.831 310.26 482.533 304.258 482.533 304.258C482.533 304.258 485.467 276.778 470.141 270.715C454.815 264.652 434.919 291.471 434.919 291.471Z" fill="#FC4619"/>
<path d="M433.249 290.069C424.627 300.709 416.143 312.366 410.598 324.956C408.448 329.835 404.986 338.148 408.061 343.355C410.317 346.897 415.675 346.024 419.552 346.238C426.54 346.475 433.595 346.111 440.327 344.458C458.983 340.155 479.564 324.935 484.455 305.33C487.21 294.005 483.672 275.542 472.949 269.595C458.238 261.524 441.269 279.363 433.249 290.069C431.49 292.379 435.101 294.998 436.714 292.707C443.121 284.292 455.041 270.69 466.626 272.08C479.248 273.477 482.521 294.344 480.505 303.496C476.966 319.959 459.609 333.854 444.578 338.703C438.758 340.528 432.673 341.5 426.636 341.726C423.399 341.869 420.123 341.72 416.847 341.573C414.463 341.451 412.758 341.979 411.775 340.188C409.401 335.774 414.652 326.479 416.65 322.656C422.161 311.995 429.224 301.862 436.859 292.687C438.492 290.543 435.027 287.904 433.249 290.069Z" fill="#A03C06"/>
<path d="M469.056 292.173C474.981 298.769 475.885 317.441 475.885 317.441L469.056 292.173Z" fill="#A03C06"/>
<path d="M467.469 293.572C472.609 299.831 473.532 309.917 473.87 317.862C473.953 320.663 478.313 320.072 478.23 317.271C477.793 308.599 476.627 297.806 470.952 290.88C469.018 288.626 465.535 291.318 467.469 293.572Z" fill="#A03C06"/>
<path d="M460.344 306.524C466.203 313.722 464.466 330.383 464.466 330.383L460.344 306.524Z" fill="#A03C06"/>
<path d="M458.592 307.797C462.948 313.719 463.007 322.886 462.353 330.077C462.147 332.917 466.519 333.509 466.725 330.669C467.512 322.275 467.314 312.091 462.076 305.106C460.433 302.813 456.95 305.504 458.592 307.797Z" fill="#A03C06"/>
<path d="M447.401 318.046C451.512 323.26 451.829 331.06 450.913 337.399C450.561 340.259 454.933 340.851 455.285 337.991C456.48 330.43 455.86 321.487 450.884 315.353C449.096 313.08 445.633 315.917 447.401 318.046Z" fill="#A03C06"/>
<path d="M348.501 266.484C364.955 264.254 376.485 249.109 374.255 232.656C372.024 216.203 356.877 204.673 340.423 206.902C323.968 209.131 312.438 224.276 314.669 240.73C316.9 257.183 332.047 268.713 348.501 266.484Z" fill="white"/>
<path d="M346.174 243.86C355.806 242.556 362.555 233.69 361.249 224.059C359.943 214.428 351.076 207.679 341.445 208.983C331.813 210.288 325.064 219.154 326.37 228.785C327.676 238.416 336.543 245.165 346.174 243.86Z" fill="black"/>
<path d="M343.182 227.247C345.991 226.866 347.96 224.281 347.579 221.472C347.198 218.663 344.612 216.694 341.802 217.075C338.993 217.456 337.024 220.042 337.405 222.85C337.786 225.66 340.372 227.628 343.182 227.247Z" fill="white"/>
<path d="M431.343 255.256C447.797 253.027 459.327 237.883 457.096 221.429C454.866 204.976 439.718 193.445 423.264 195.675C406.81 197.904 395.28 213.049 397.511 229.502C399.741 245.955 414.888 257.486 431.343 255.256Z" fill="white"/>
<path d="M429.016 232.634C438.648 231.329 445.397 222.463 444.091 212.832C442.785 203.201 433.918 196.452 424.286 197.757C414.655 199.062 407.906 207.927 409.212 217.558C410.518 227.189 419.384 233.939 429.016 232.634Z" fill="black"/>
<path d="M426.023 216.021C428.832 215.64 430.801 213.054 430.419 210.245C430.039 207.436 427.453 205.467 424.644 205.848C421.835 206.229 419.866 208.814 420.247 211.624C420.628 214.432 423.214 216.401 426.023 216.021Z" fill="white"/>
<path d="M388.388 246.278C393.043 245.648 395.449 235.052 393.763 222.612C392.076 210.172 386.935 200.599 382.28 201.23C377.624 201.86 375.218 212.457 376.905 224.896C378.591 237.336 383.732 246.909 388.388 246.278Z" fill="#EAD91D"/>
</g>
<path d="M261.106 170.14C262.483 167.756 262.195 164.554 260.465 162.422L260.472 162.423C260.507 162.407 260.364 161.965 260.386 161.92C262.272 160.902 261.63 158.292 260.701 156.807C258.425 152.915 253.265 151.593 249.391 153.903C249.292 147.911 243.304 144.699 238.136 147.494C238.563 142.22 232.516 138.644 228.301 142.046C229.269 136.719 223.222 133.141 218.795 136.045C219.031 130.436 212.729 126.355 207.761 129.261C208.023 124.46 203.559 120.244 198.773 120.772C197.132 120.919 195.406 121.82 195.438 123.466C195.501 123.503 194.901 123.611 194.963 123.648C189.517 122.516 184.919 128.765 187.626 133.614C182.598 134.021 179.147 139.929 181.122 144.551C179.25 144.792 177.38 145.658 176.12 147.095C174.374 149.121 173.998 152.164 175.018 154.612C172.708 155.242 170.778 157.144 170.006 159.389C169.136 163.316 172.469 169.153 177.917 168.875C177.538 175.227 183.725 179.201 189.278 176.003C189.093 181.063 194.052 185.949 198.81 183.653C198.132 186.95 203.257 190.314 205.895 187.846C207.006 192.159 213.301 195.224 217.189 192.525C217.044 195.069 218.309 197.636 220.385 199.111C222.858 200.893 226.408 200.664 228.904 199.057C232.009 205.365 239.468 205.576 242.198 199.522C242.879 198.048 243.229 196.348 242.828 194.752C247.878 194.147 250.646 189.247 248.74 184.577C253.759 184.065 257.275 178.277 255.229 173.632C257.614 173.59 259.92 172.203 261.106 170.14Z" fill="#EBB308"/>
<path d="M229.793 197.396C224.739 200.876 217.696 197.013 218.103 190.86C214.2 193.621 207.83 190.348 206.832 186.18C204.115 188.561 199.235 185.509 199.763 181.983C196.048 184.064 190.17 180.473 190.253 174.329C185.085 177.62 178.346 173.354 178.91 167.271C178.876 167.247 178.839 167.223 178.804 167.199C173.005 167.321 170.747 161.45 170.854 158.661C170.726 158.558 170.601 158.449 170.479 158.338C169.806 159.596 169.759 160.504 170.022 161.888C170.768 165.725 173.806 169.073 177.941 168.842C177.722 171.878 179.298 175.163 182.152 176.42C184.409 177.44 187.171 177.289 189.278 175.974C189.237 178.114 189.991 180.265 191.444 181.842C193.226 183.837 196.351 184.997 198.788 183.629C198.096 186.943 203.281 190.292 205.858 187.825C207.008 192.185 213.241 195.195 217.128 192.507C216.978 195.161 218.353 197.836 220.58 199.276C223.037 200.869 226.412 200.593 228.818 199.043C231.99 205.323 238.682 205.2 241.471 200.626C241.699 200.267 241.904 199.892 242.083 199.506C239.139 203.565 232.826 203.414 229.793 197.396Z" fill="#331706"/>
<path d="M232.295 189.427C231.028 189.155 230.413 191.47 230.159 192.393C229.535 193.775 231.524 193.702 232.216 193.694C233.08 193.593 234.61 193.358 235.1 192.597C235.523 191.451 233.007 189.561 232.295 189.427Z" fill="#662F0D"/>
<path d="M238.612 178.778C237.345 178.506 236.73 180.821 236.476 181.744C235.852 183.125 237.841 183.053 238.533 183.044C239.397 182.944 240.927 182.708 241.417 181.947C241.84 180.801 239.324 178.912 238.612 178.778Z" fill="#662F0D"/>
<path d="M245.003 168.004C243.737 167.731 243.122 170.047 242.868 170.97C242.244 172.352 244.232 172.279 244.925 172.271C245.788 172.17 247.319 171.935 247.808 171.174C248.23 170.028 245.716 168.138 245.003 168.004Z" fill="#662F0D"/>
<path d="M250.988 157.916C249.72 157.643 249.106 159.958 248.852 160.882C248.228 162.264 250.216 162.19 250.909 162.182C251.773 162.081 253.303 161.846 253.793 161.085C254.215 159.939 251.7 158.05 250.988 157.916Z" fill="#662F0D"/>
<path d="M221.577 183.077C220.31 182.804 219.695 185.12 219.441 186.043C218.818 187.424 220.806 187.351 221.498 187.343C222.362 187.243 223.892 187.007 224.382 186.246C224.804 185.1 222.289 183.21 221.577 183.077Z" fill="#662F0D"/>
<path d="M227.894 172.427C226.628 172.155 226.013 174.47 225.758 175.393C225.135 176.774 227.123 176.702 227.816 176.694C228.679 176.593 230.209 176.357 230.699 175.597C231.121 174.451 228.607 172.561 227.894 172.427Z" fill="#662F0D"/>
<path d="M234.285 161.653C233.018 161.381 232.403 163.695 232.149 164.619C231.525 166.001 233.514 165.927 234.206 165.919C235.069 165.818 236.6 165.583 237.09 164.823C237.512 163.677 234.997 161.788 234.285 161.653Z" fill="#662F0D"/>
<path d="M240.269 151.564C239.003 151.292 238.389 153.607 238.134 154.53C237.511 155.912 239.499 155.839 240.192 155.831C241.054 155.73 242.584 155.495 243.074 154.734C243.497 153.588 240.982 151.698 240.269 151.564Z" fill="#662F0D"/>
<path d="M212.104 177.464C210.838 177.192 210.224 179.507 209.969 180.43C209.345 181.812 211.334 181.739 212.027 181.731C212.889 181.63 214.42 181.394 214.909 180.634C215.332 179.487 212.817 177.598 212.104 177.464Z" fill="#662F0D"/>
<path d="M221.227 169.984C221.648 168.838 219.134 166.949 218.422 166.814C217.155 166.542 216.54 168.857 216.285 169.78C215.662 171.162 217.65 171.089 218.343 171.081C219.206 170.981 220.737 170.745 221.227 169.984Z" fill="#662F0D"/>
<path d="M224.734 160.308C225.598 160.207 227.128 159.972 227.618 159.211C228.041 158.065 225.525 156.175 224.813 156.041C223.546 155.769 222.931 158.084 222.676 159.007C222.053 160.388 224.041 160.315 224.734 160.308Z" fill="#662F0D"/>
<path d="M230.719 150.219C231.582 150.118 233.113 149.883 233.603 149.122C234.025 147.975 231.51 146.087 230.798 145.953C229.531 145.68 228.916 147.995 228.662 148.919C228.038 150.3 230.026 150.226 230.719 150.219Z" fill="#662F0D"/>
<path d="M202.758 171.926C201.49 171.653 200.876 173.968 200.621 174.892C199.998 176.273 201.986 176.2 202.679 176.191C203.543 176.091 205.073 175.855 205.563 175.095C205.985 173.949 203.469 172.06 202.758 171.926Z" fill="#662F0D"/>
<path d="M211.879 164.446C212.302 163.3 209.787 161.411 209.074 161.277C207.807 161.004 207.192 163.319 206.938 164.243C206.315 165.624 208.303 165.55 208.995 165.542C209.859 165.442 211.389 165.206 211.879 164.446Z" fill="#662F0D"/>
<path d="M215.387 154.769C216.25 154.668 217.781 154.433 218.271 153.672C218.693 152.526 216.178 150.637 215.465 150.503C214.199 150.23 213.584 152.545 213.329 153.469C212.706 154.85 214.694 154.776 215.387 154.769Z" fill="#662F0D"/>
<path d="M221.371 144.68C222.235 144.58 223.765 144.344 224.255 143.584C224.678 142.437 222.163 140.548 221.45 140.414C220.183 140.141 219.568 142.456 219.315 143.379C218.691 144.761 220.679 144.688 221.371 144.68Z" fill="#662F0D"/>
<path d="M193.036 166.165C191.769 165.893 191.154 168.208 190.9 169.131C190.276 170.513 192.265 170.44 192.957 170.432C193.821 170.331 195.351 170.096 195.841 169.335C196.263 168.189 193.748 166.3 193.036 166.165Z" fill="#662F0D"/>
<path d="M202.158 158.686C202.581 157.539 200.065 155.65 199.353 155.516C198.086 155.244 197.471 157.558 197.217 158.482C196.593 159.863 198.582 159.79 199.274 159.782C200.138 159.682 201.668 159.446 202.158 158.686Z" fill="#662F0D"/>
<path d="M205.666 149.009C206.529 148.908 208.059 148.673 208.549 147.912C208.971 146.766 206.457 144.876 205.744 144.742C204.477 144.47 203.863 146.785 203.608 147.708C202.985 149.089 204.973 149.017 205.666 149.009Z" fill="#662F0D"/>
<path d="M211.65 138.92C212.514 138.819 214.044 138.584 214.534 137.824C214.956 136.678 212.441 134.788 211.729 134.654C210.461 134.381 209.847 136.696 209.592 137.62C208.969 139.001 210.957 138.927 211.65 138.92Z" fill="#662F0D"/>
<path d="M181.445 159.298C180.178 159.025 179.563 161.34 179.309 162.264C178.685 163.645 180.674 163.572 181.367 163.564C182.23 163.463 183.76 163.228 184.25 162.467C184.673 161.321 182.158 159.432 181.445 159.298Z" fill="#662F0D"/>
<path d="M187.762 148.649C186.495 148.376 185.88 150.691 185.626 151.615C185.002 152.996 186.991 152.923 187.683 152.915C188.547 152.814 190.077 152.578 190.567 151.818C190.99 150.672 188.474 148.783 187.762 148.649Z" fill="#662F0D"/>
<path d="M194.075 142.141C194.938 142.04 196.468 141.805 196.958 141.044C197.38 139.898 194.866 138.009 194.153 137.874C192.886 137.602 192.272 139.917 192.017 140.84C191.394 142.221 193.382 142.149 194.075 142.141Z" fill="#662F0D"/>
<path d="M200.059 132.053C200.923 131.952 202.453 131.717 202.943 130.956C203.366 129.81 200.85 127.92 200.138 127.786C198.871 127.513 198.256 129.829 198.001 130.752C197.378 132.133 199.366 132.06 200.059 132.053Z" fill="#662F0D"/>
<defs>
<linearGradient id="paint0_linear_40_121" x1="-37.0966" y1="-92.0713" x2="410.566" y2="343.367" gradientUnits="userSpaceOnUse">
<stop stop-color="white"/>
<stop offset="0.848813" stop-color="white" stop-opacity="0.3"/>
</linearGradient>
<linearGradient id="paint1_linear_40_121" x1="518.727" y1="309.4" x2="133.458" y2="14.4144" gradientUnits="userSpaceOnUse">
<stop stop-color="#1A1A1A"/>
<stop offset="1" stop-color="#1A1A1A" stop-opacity="0"/>
</linearGradient>
</defs>
</svg>
