<svg width="55" height="54" viewBox="0 0 55 54" fill="none" xmlns="http://www.w3.org/2000/svg">
<path d="M23.5559 23.0205L26.7959 29.7165C26.9319 29.9885 26.9999 30.1925 26.9999 30.3285C26.9999 30.6165 26.7679 30.8765 26.3039 31.1085C26.0319 31.2445 25.8159 31.3125 25.6559 31.3125C25.5039 31.3125 25.3759 31.2765 25.2719 31.2045C25.1759 31.1325 25.1039 31.0565 25.0559 30.9765C25.0159 30.8965 24.9559 30.7765 24.8759 30.6165L24.2519 29.3205H20.9279L20.3039 30.6165C20.2239 30.7765 20.1599 30.8925 20.1119 30.9645C20.0719 31.0365 19.9999 31.1125 19.8959 31.1925C19.7999 31.2645 19.6719 31.3005 19.5119 31.3005C19.3599 31.3005 19.1479 31.2325 18.8759 31.0965C18.4119 30.8725 18.1799 30.6165 18.1799 30.3285C18.1799 30.1925 18.2479 29.9885 18.3839 29.7165L21.6239 23.0085C21.7119 22.8245 21.8439 22.6765 22.0199 22.5645C22.2039 22.4525 22.3959 22.3965 22.5959 22.3965C23.0279 22.3965 23.3479 22.6045 23.5559 23.0205ZM22.5839 25.9005L21.7919 27.5445H23.3879L22.5839 25.9005Z" fill="#5677FC"/>
<path d="M34.1477 24.1725C34.3557 24.5965 34.4597 25.0685 34.4597 25.5885C34.4597 26.1085 34.3557 26.5805 34.1477 27.0045C33.9397 27.4205 33.6717 27.7525 33.3437 28.0005C32.6797 28.5125 31.9917 28.7685 31.2797 28.7685H29.7797V30.1245C29.7797 30.3085 29.7717 30.4485 29.7557 30.5445C29.7477 30.6325 29.7117 30.7365 29.6477 30.8565C29.5357 31.0725 29.2237 31.1805 28.7117 31.1805C28.1517 31.1805 27.8237 31.0325 27.7277 30.7365C27.6797 30.6005 27.6557 30.3925 27.6557 30.1125V23.4525C27.6557 23.2685 27.6597 23.1325 27.6677 23.0445C27.6837 22.9485 27.7237 22.8405 27.7877 22.7205C27.8997 22.5045 28.2117 22.3965 28.7237 22.3965H31.2917C31.9957 22.3965 32.6797 22.6525 33.3437 23.1645C33.6717 23.4125 33.9397 23.7485 34.1477 24.1725ZM31.2917 26.6445C31.5317 26.6445 31.7677 26.5565 31.9997 26.3805C32.2317 26.2045 32.3477 25.9405 32.3477 25.5885C32.3477 25.2365 32.2317 24.9725 31.9997 24.7965C31.7677 24.6125 31.5277 24.5205 31.2797 24.5205H29.7797V26.6445H31.2917Z" fill="#5677FC"/>
<path d="M35.2377 23.4525C35.2377 23.2685 35.2417 23.1325 35.2497 23.0445C35.2657 22.9485 35.3057 22.8405 35.3697 22.7205C35.4817 22.5045 35.7937 22.3965 36.3057 22.3965C36.8657 22.3965 37.1977 22.5445 37.3017 22.8405C37.3417 22.9765 37.3617 23.1845 37.3617 23.4645V30.1365C37.3617 30.3285 37.3537 30.4685 37.3377 30.5565C37.3297 30.6445 37.2937 30.7485 37.2297 30.8685C37.1177 31.0845 36.8057 31.1925 36.2937 31.1925C35.7337 31.1925 35.4057 31.0405 35.3097 30.7365C35.2617 30.6085 35.2377 30.4045 35.2377 30.1245V23.4525Z" fill="#5677FC"/>
<path opacity="0.88" d="M32.3857 5.06356C33.5602 3.09703 36.1082 2.40043 38.082 3.5704L42.4053 6.03524C44.679 7.32993 45.4536 10.2428 44.1543 12.4835C41.8808 16.392 43.7297 19.579 48.252 19.5792C50.8505 19.5792 52.9997 21.6947 53 24.3087V28.6915C52.9997 31.2806 50.8755 33.421 48.252 33.421C43.7297 33.4212 41.8808 36.6081 44.1543 40.5167C45.4536 42.7823 44.679 45.6702 42.4053 46.9649L38.082 49.4298C36.1082 50.5997 33.5602 49.9031 32.3857 47.9366L32.1104 47.463C29.8615 43.5546 26.1635 43.5546 23.8896 47.463L23.6143 47.9366C22.4398 49.9031 19.8918 50.5997 17.918 49.4298L13.5947 46.9649C11.321 45.6702 10.5464 42.7574 11.8457 40.5167C14.1192 36.6081 12.2703 33.4212 7.74805 33.421C5.12452 33.421 3.00026 31.2806 3 28.6915V24.3087C3.00026 21.7196 5.12452 19.5792 7.74805 19.5792C12.2703 19.579 14.1192 16.392 11.8457 12.4835C10.5464 10.2428 11.321 7.32994 13.5947 6.03524L17.918 3.5704C19.8918 2.40042 22.4398 3.09703 23.6143 5.06356L23.8896 5.5372C26.1385 9.44561 29.8365 9.44561 32.1104 5.5372L32.3857 5.06356ZM28 13.0001C20.268 13.0001 14 19.2681 14 27.0001C14 34.7321 20.268 41.0001 28 41.0001C35.732 41.0001 42 34.7321 42 27.0001C42 19.2681 35.732 13.0001 28 13.0001Z" fill="#5677FC"/>
</svg>
