<svg width="615" height="361" viewBox="0 0 615 361" fill="none" xmlns="http://www.w3.org/2000/svg">
<path d="M500.85 69.2319H136.14C127.254 69.2319 120.05 76.4357 120.05 85.3221V300.751C120.05 309.637 127.254 316.841 136.14 316.841H500.85C509.736 316.841 516.94 309.637 516.94 300.751V85.3221C516.94 76.4357 509.736 69.2319 500.85 69.2319Z" fill="url(#paint0_linear_40_121)" fill-opacity="0.2" stroke="url(#paint1_linear_40_121)" stroke-width="4"/>
<path opacity="0.2" d="M118.262 103.2H518.727" stroke="#1A1A1A" stroke-width="3"/>
<path d="M435.595 96.0489C440.038 96.0489 443.64 92.447 443.64 88.0038C443.64 83.5606 440.038 79.9587 435.595 79.9587C431.152 79.9587 427.55 83.5606 427.55 88.0038C427.55 92.447 431.152 96.0489 435.595 96.0489Z" fill="#FFB3B3"/>
<path d="M461.518 96.0489C465.961 96.0489 469.563 92.447 469.563 88.0038C469.563 83.5606 465.961 79.9587 461.518 79.9587C457.075 79.9587 453.473 83.5606 453.473 88.0038C453.473 92.447 457.075 96.0489 461.518 96.0489Z" fill="#FFF845"/>
<path d="M487.441 96.0489C491.884 96.0489 495.486 92.447 495.486 88.0038C495.486 83.5606 491.884 79.9587 487.441 79.9587C482.998 79.9587 479.396 83.5606 479.396 88.0038C479.396 92.447 482.998 96.0489 487.441 96.0489Z" fill="#ABD464"/>
<mask id="mask0_40_121" style="mask-type:luminance" maskUnits="userSpaceOnUse" x="245" y="140" width="240" height="175">
<path d="M484.491 140.632H245.821V314.941H484.491V140.632Z" fill="white"/>
</mask>
<g mask="url(#mask0_40_121)">
<path d="M434.54 167.8C434.54 167.8 419.529 155.33 381.016 160.549C342.503 165.767 328.581 180.973 327.43 182.312C327.43 182.312 307.673 194.757 308.8 238.113L309.683 291.566C309.683 291.566 313.223 385.355 408.139 370.423C502.93 355.655 478.659 266.154 478.659 266.154L466.832 220.4C466.832 220.4 454.955 177.45 434.54 167.8Z" fill="#F9591A"/>
<path d="M335.545 352.436C335.545 352.436 339.458 298.332 395.057 288.135C450.656 277.938 469.931 334.967 469.931 334.967C469.931 334.967 457.526 361.362 408.275 371.439C359.024 381.516 335.545 352.436 335.545 352.436Z" fill="#ECD136"/>
<path d="M357.454 302.26C357.454 302.26 399.203 331.824 394.872 345.73C390.399 347.668 386.012 349.151 381.877 350.303C353.99 357.485 335.291 347.291 324.902 338.34C318.202 332.589 314.962 327.256 314.962 327.256C314.962 327.256 304.817 301.548 317.976 291.626C331.135 281.703 357.454 302.26 357.454 302.26Z" fill="#F9591A"/>
<path d="M356.053 303.929C363.915 309.523 371.565 315.738 378.549 322.488C383.327 327.168 388.786 332.496 391.562 338.779C391.99 339.757 392.788 341.276 392.801 342.459C392.534 344.863 392.562 343.972 390.461 344.848C384.613 347.564 377.715 349.091 371.447 349.793C351.807 352.305 332.321 345.03 319.591 329.736C313.586 322.558 310.342 306.275 315.924 297.232C324.634 282.88 346.811 296.894 356.053 303.929C358.363 305.688 361.001 302.223 358.691 300.464C348.768 292.781 331.484 282.1 318.744 288.562C305.734 295.209 307.262 316.312 312.637 327.57C320.26 343.408 341.594 353.393 358.054 354.714C364.336 355.195 370.789 354.765 376.999 353.627C381.901 352.667 392.074 351.289 395.584 347.705C399.51 343.918 395.89 336.861 393.303 333.068C384.872 320.003 371.154 309.431 358.71 300.61C356.4 298.85 353.762 302.316 356.053 303.929Z" fill="#A03C06"/>
<path d="M324.736 312.021C320.781 319.956 324.881 338.195 324.881 338.195L324.736 312.021Z" fill="#A03C06"/>
<path d="M322.709 311.259C319.083 319.447 320.832 330.161 322.72 338.636C323.385 341.358 327.746 340.767 327.081 338.045C325.435 330.277 323.495 320.329 326.783 312.927C327.901 310.26 323.827 308.593 322.709 311.259Z" fill="#A03C06"/>
<path d="M434.919 291.761C434.919 291.761 402.548 331.368 410.425 343.62C415.253 344.299 419.877 344.56 424.17 344.57C452.838 344.237 468.147 329.436 475.904 317.878C480.831 310.551 482.533 304.548 482.533 304.548C482.533 304.548 485.467 277.068 470.141 271.005C454.815 264.942 434.919 291.761 434.919 291.761Z" fill="#FC4619"/>
<path d="M433.249 290.359C424.627 300.999 416.143 312.656 410.598 325.246C408.448 330.125 404.986 338.438 408.061 343.645C410.317 347.187 415.675 346.314 419.552 346.528C426.54 346.765 433.595 346.401 440.327 344.748C458.983 340.445 479.564 325.225 484.455 305.62C487.21 294.295 483.672 275.832 472.949 269.885C458.238 261.815 441.269 279.653 433.249 290.359C431.49 292.669 435.101 295.288 436.714 292.997C443.121 284.582 455.041 270.98 466.626 272.37C479.248 273.767 482.521 294.634 480.505 303.786C476.966 320.249 459.609 334.144 444.578 338.993C438.758 340.818 432.673 341.79 426.636 342.016C423.399 342.159 420.123 342.01 416.847 341.863C414.463 341.741 412.758 342.269 411.775 340.478C409.401 336.064 414.652 326.769 416.65 322.946C422.161 312.285 429.224 302.152 436.859 292.977C438.492 290.833 435.027 288.194 433.249 290.359Z" fill="#A03C06"/>
<path d="M469.056 292.463C474.981 299.059 475.885 317.731 475.885 317.731L469.056 292.463Z" fill="#A03C06"/>
<path d="M467.469 293.862C472.609 300.121 473.532 310.207 473.87 318.152C473.953 320.953 478.313 320.362 478.23 317.562C477.793 308.889 476.627 298.096 470.952 291.17C469.018 288.916 465.535 291.608 467.469 293.862Z" fill="#A03C06"/>
<path d="M460.344 306.814C466.203 314.012 464.466 330.673 464.466 330.673L460.344 306.814Z" fill="#A03C06"/>
<path d="M458.592 308.087C462.948 314.009 463.007 323.176 462.353 330.367C462.147 333.207 466.519 333.799 466.725 330.959C467.512 322.565 467.314 312.381 462.076 305.396C460.433 303.103 456.95 305.794 458.592 308.087Z" fill="#A03C06"/>
<path d="M447.401 318.336C451.512 323.55 451.829 331.35 450.913 337.689C450.561 340.549 454.933 341.141 455.285 338.281C456.48 330.72 455.86 321.777 450.884 315.643C449.096 313.37 445.633 316.207 447.401 318.336Z" fill="#A03C06"/>
<path d="M348.501 266.774C364.955 264.544 376.485 249.399 374.255 232.946C372.024 216.493 356.877 204.963 340.423 207.192C323.968 209.421 312.438 224.566 314.669 241.02C316.9 257.473 332.047 269.003 348.501 266.774Z" fill="white"/>
<path d="M346.174 244.15C355.806 242.846 362.555 233.98 361.249 224.35C359.943 214.718 351.076 207.969 341.445 209.273C331.813 210.578 325.064 219.444 326.37 229.075C327.676 238.706 336.543 245.455 346.174 244.15Z" fill="black"/>
<path d="M343.182 227.537C345.991 227.156 347.96 224.571 347.579 221.762C347.198 218.953 344.612 216.984 341.802 217.365C338.993 217.746 337.024 220.332 337.405 223.14C337.786 225.95 340.372 227.918 343.182 227.537Z" fill="white"/>
<path d="M431.343 255.546C447.797 253.317 459.327 238.173 457.096 221.719C454.866 205.266 439.718 193.735 423.264 195.965C406.81 198.194 395.28 213.339 397.511 229.792C399.741 246.245 414.888 257.776 431.343 255.546Z" fill="white"/>
<path d="M429.016 232.924C438.648 231.619 445.397 222.753 444.091 213.122C442.785 203.491 433.918 196.742 424.286 198.047C414.655 199.352 407.906 208.217 409.212 217.848C410.518 227.479 419.384 234.229 429.016 232.924Z" fill="black"/>
<path d="M426.023 216.311C428.832 215.93 430.801 213.344 430.419 210.535C430.039 207.726 427.453 205.757 424.644 206.138C421.835 206.519 419.866 209.104 420.247 211.914C420.628 214.722 423.214 216.692 426.023 216.311Z" fill="white"/>
<path d="M388.388 246.568C393.043 245.938 395.449 235.342 393.763 222.902C392.076 210.462 386.935 200.889 382.28 201.52C377.624 202.15 375.218 212.747 376.905 225.186C378.591 237.626 383.732 247.199 388.388 246.568Z" fill="#EAD91D"/>
</g>
<path d="M261.106 170.43C262.483 168.046 262.195 164.844 260.465 162.712L260.472 162.713C260.507 162.697 260.364 162.255 260.386 162.21C262.272 161.192 261.63 158.582 260.701 157.097C258.425 153.205 253.265 151.883 249.391 154.193C249.292 148.201 243.304 144.989 238.136 147.784C238.563 142.51 232.516 138.934 228.301 142.336C229.269 137.009 223.222 133.431 218.795 136.335C219.031 130.726 212.729 126.645 207.761 129.551C208.023 124.75 203.559 120.534 198.773 121.062C197.132 121.209 195.406 122.11 195.438 123.756C195.501 123.793 194.901 123.901 194.963 123.938C189.517 122.806 184.919 129.055 187.626 133.904C182.598 134.311 179.147 140.22 181.122 144.841C179.25 145.082 177.38 145.948 176.12 147.385C174.374 149.411 173.998 152.454 175.018 154.902C172.708 155.532 170.778 157.434 170.006 159.679C169.136 163.607 172.469 169.443 177.917 169.165C177.538 175.517 183.725 179.491 189.278 176.293C189.093 181.353 194.052 186.239 198.81 183.943C198.132 187.24 203.257 190.604 205.895 188.136C207.006 192.449 213.301 195.514 217.189 192.815C217.044 195.359 218.309 197.926 220.385 199.401C222.858 201.183 226.408 200.954 228.904 199.347C232.009 205.655 239.468 205.866 242.198 199.812C242.879 198.338 243.229 196.638 242.828 195.042C247.878 194.437 250.646 189.537 248.74 184.867C253.759 184.355 257.275 178.567 255.229 173.922C257.614 173.88 259.92 172.493 261.106 170.43Z" fill="#EBB308"/>
<path d="M229.793 197.686C224.739 201.166 217.696 197.303 218.103 191.15C214.2 193.912 207.83 190.638 206.832 186.47C204.115 188.851 199.235 185.799 199.763 182.273C196.048 184.354 190.17 180.763 190.253 174.619C185.085 177.91 178.346 173.644 178.91 167.561C178.876 167.537 178.839 167.513 178.804 167.489C173.005 167.611 170.747 161.74 170.854 158.951C170.726 158.848 170.601 158.739 170.479 158.628C169.806 159.886 169.759 160.794 170.022 162.178C170.768 166.015 173.806 169.363 177.941 169.132C177.722 172.168 179.298 175.453 182.152 176.71C184.409 177.73 187.171 177.579 189.278 176.264C189.237 178.404 189.991 180.555 191.444 182.132C193.226 184.127 196.351 185.287 198.788 183.919C198.096 187.233 203.281 190.582 205.858 188.116C207.008 192.475 213.241 195.485 217.128 192.797C216.978 195.451 218.353 198.126 220.58 199.566C223.037 201.159 226.412 200.883 228.818 199.333C231.99 205.613 238.682 205.49 241.471 200.916C241.699 200.557 241.904 200.182 242.083 199.796C239.139 203.855 232.826 203.704 229.793 197.686Z" fill="#331706"/>
<path d="M232.295 189.717C231.028 189.445 230.413 191.76 230.159 192.683C229.535 194.065 231.524 193.992 232.216 193.984C233.08 193.883 234.61 193.648 235.1 192.887C235.523 191.741 233.007 189.851 232.295 189.717Z" fill="#662F0D"/>
<path d="M238.612 179.068C237.345 178.796 236.73 181.111 236.476 182.034C235.852 183.415 237.841 183.343 238.533 183.334C239.397 183.234 240.927 182.998 241.417 182.237C241.84 181.091 239.324 179.202 238.612 179.068Z" fill="#662F0D"/>
<path d="M245.003 168.294C243.737 168.021 243.122 170.337 242.868 171.26C242.244 172.642 244.232 172.569 244.925 172.561C245.788 172.46 247.319 172.225 247.808 171.464C248.23 170.318 245.716 168.428 245.003 168.294Z" fill="#662F0D"/>
<path d="M250.988 158.206C249.72 157.933 249.106 160.248 248.852 161.172C248.228 162.554 250.216 162.48 250.909 162.472C251.773 162.371 253.303 162.136 253.793 161.376C254.215 160.229 251.7 158.34 250.988 158.206Z" fill="#662F0D"/>
<path d="M221.577 183.367C220.31 183.094 219.695 185.41 219.441 186.333C218.818 187.714 220.806 187.641 221.498 187.633C222.362 187.533 223.892 187.297 224.382 186.536C224.804 185.39 222.289 183.5 221.577 183.367Z" fill="#662F0D"/>
<path d="M227.894 172.717C226.628 172.445 226.013 174.76 225.758 175.683C225.135 177.064 227.123 176.992 227.816 176.984C228.679 176.883 230.209 176.647 230.699 175.887C231.121 174.741 228.607 172.851 227.894 172.717Z" fill="#662F0D"/>
<path d="M234.285 161.943C233.018 161.671 232.403 163.985 232.149 164.909C231.525 166.291 233.514 166.218 234.206 166.209C235.069 166.108 236.6 165.873 237.09 165.113C237.512 163.967 234.997 162.078 234.285 161.943Z" fill="#662F0D"/>
<path d="M240.269 151.854C239.003 151.582 238.389 153.897 238.134 154.82C237.511 156.202 239.499 156.129 240.192 156.121C241.054 156.02 242.584 155.785 243.074 155.024C243.497 153.878 240.982 151.989 240.269 151.854Z" fill="#662F0D"/>
<path d="M212.104 177.754C210.838 177.482 210.224 179.797 209.969 180.72C209.345 182.102 211.334 182.029 212.027 182.021C212.889 181.92 214.42 181.684 214.909 180.924C215.332 179.777 212.817 177.888 212.104 177.754Z" fill="#662F0D"/>
<path d="M221.227 170.274C221.648 169.128 219.134 167.239 218.422 167.104C217.155 166.832 216.54 169.147 216.285 170.07C215.662 171.452 217.65 171.379 218.343 171.371C219.206 171.271 220.737 171.035 221.227 170.274Z" fill="#662F0D"/>
<path d="M224.734 160.598C225.598 160.497 227.128 160.262 227.618 159.501C228.041 158.355 225.525 156.465 224.813 156.331C223.546 156.059 222.931 158.374 222.676 159.297C222.053 160.678 224.041 160.605 224.734 160.598Z" fill="#662F0D"/>
<path d="M230.719 150.509C231.582 150.408 233.113 150.173 233.603 149.412C234.025 148.266 231.51 146.377 230.798 146.243C229.531 145.97 228.916 148.285 228.662 149.209C228.038 150.59 230.026 150.516 230.719 150.509Z" fill="#662F0D"/>
<path d="M202.758 172.216C201.49 171.943 200.876 174.258 200.621 175.182C199.998 176.563 201.986 176.49 202.679 176.481C203.543 176.381 205.073 176.145 205.563 175.386C205.985 174.239 203.469 172.35 202.758 172.216Z" fill="#662F0D"/>
<path d="M211.879 164.736C212.302 163.59 209.787 161.701 209.074 161.567C207.807 161.294 207.192 163.609 206.938 164.533C206.315 165.914 208.303 165.84 208.995 165.832C209.859 165.732 211.389 165.496 211.879 164.736Z" fill="#662F0D"/>
<path d="M215.387 155.059C216.25 154.958 217.781 154.723 218.271 153.962C218.693 152.816 216.178 150.927 215.465 150.793C214.199 150.52 213.584 152.835 213.329 153.759C212.706 155.14 214.694 155.066 215.387 155.059Z" fill="#662F0D"/>
<path d="M221.371 144.97C222.235 144.87 223.765 144.634 224.255 143.874C224.678 142.727 222.163 140.838 221.45 140.704C220.183 140.431 219.568 142.746 219.315 143.669C218.691 145.051 220.679 144.978 221.371 144.97Z" fill="#662F0D"/>
<path d="M193.036 166.456C191.769 166.183 191.154 168.498 190.9 169.421C190.276 170.803 192.265 170.73 192.957 170.722C193.821 170.621 195.351 170.386 195.841 169.625C196.263 168.479 193.748 166.59 193.036 166.456Z" fill="#662F0D"/>
<path d="M202.158 158.976C202.581 157.829 200.065 155.94 199.353 155.806C198.086 155.534 197.471 157.848 197.217 158.772C196.593 160.153 198.582 160.08 199.274 160.072C200.138 159.972 201.668 159.736 202.158 158.976Z" fill="#662F0D"/>
<path d="M205.666 149.299C206.529 149.198 208.059 148.963 208.549 148.202C208.971 147.056 206.457 145.167 205.744 145.032C204.477 144.76 203.863 147.075 203.608 147.998C202.985 149.379 204.973 149.307 205.666 149.299Z" fill="#662F0D"/>
<path d="M211.65 139.21C212.514 139.109 214.044 138.874 214.534 138.114C214.956 136.968 212.441 135.078 211.729 134.944C210.461 134.671 209.847 136.986 209.592 137.91C208.969 139.291 210.957 139.218 211.65 139.21Z" fill="#662F0D"/>
<path d="M181.445 159.588C180.178 159.315 179.563 161.63 179.309 162.554C178.685 163.936 180.674 163.862 181.367 163.854C182.23 163.753 183.76 163.518 184.25 162.757C184.673 161.611 182.158 159.722 181.445 159.588Z" fill="#662F0D"/>
<path d="M187.762 148.939C186.495 148.666 185.88 150.981 185.626 151.905C185.002 153.286 186.991 153.213 187.683 153.205C188.547 153.104 190.077 152.868 190.567 152.108C190.99 150.962 188.474 149.073 187.762 148.939Z" fill="#662F0D"/>
<path d="M194.075 142.431C194.938 142.33 196.468 142.095 196.958 141.334C197.38 140.188 194.866 138.299 194.153 138.164C192.886 137.892 192.272 140.207 192.017 141.13C191.394 142.512 193.382 142.439 194.075 142.431Z" fill="#662F0D"/>
<path d="M200.059 132.343C200.923 132.242 202.453 132.007 202.943 131.246C203.366 130.1 200.85 128.21 200.138 128.076C198.871 127.803 198.256 130.119 198.001 131.042C197.378 132.423 199.366 132.35 200.059 132.343Z" fill="#662F0D"/>
<defs>
<linearGradient id="paint0_linear_40_121" x1="-37.0966" y1="-91.7813" x2="410.566" y2="343.657" gradientUnits="userSpaceOnUse">
<stop stop-color="white"/>
<stop offset="0.848813" stop-color="white" stop-opacity="0.3"/>
</linearGradient>
<linearGradient id="paint1_linear_40_121" x1="518.727" y1="309.69" x2="133.458" y2="14.7045" gradientUnits="userSpaceOnUse">
<stop stop-color="#1A1A1A"/>
<stop offset="1" stop-color="#1A1A1A" stop-opacity="0"/>
</linearGradient>
</defs>
</svg>
