<svg width="54" height="54" viewBox="0 0 54 54" fill="none" xmlns="http://www.w3.org/2000/svg">
<path fill-rule="evenodd" clip-rule="evenodd" d="M27.4236 27.1353C27.4236 22.324 31.3241 18.4235 36.1353 18.4235C40.9466 18.4235 44.8471 22.324 44.8471 27.1353C44.8471 31.9466 40.9466 35.847 36.1353 35.847C31.3241 35.847 27.4236 31.9466 27.4236 27.1353Z" fill="#1ABCFE"/>
<path fill-rule="evenodd" clip-rule="evenodd" d="M10 44.5588C10 39.7475 13.9004 35.847 18.7118 35.847H27.4235V44.5588C27.4235 49.3701 23.523 53.2705 18.7118 53.2705C13.9004 53.2705 10 49.3701 10 44.5588Z" fill="#0ACF83"/>
<path fill-rule="evenodd" clip-rule="evenodd" d="M27.4236 1V18.4235H36.1353C40.9466 18.4235 44.8471 14.523 44.8471 9.71176C44.8471 4.90038 40.9466 1 36.1353 1H27.4236Z" fill="#FF7262"/>
<path fill-rule="evenodd" clip-rule="evenodd" d="M10 9.71176C10 14.523 13.9004 18.4235 18.7118 18.4235H27.4235V1H18.7118C13.9004 1 10 4.90038 10 9.71176Z" fill="#F24E1E"/>
<path fill-rule="evenodd" clip-rule="evenodd" d="M10 27.1353C10 31.9466 13.9004 35.847 18.7118 35.847H27.4235V18.4235H18.7118C13.9004 18.4235 10 22.324 10 27.1353Z" fill="#A259FF"/>
</svg>
