<svg width="32" height="32" viewBox="0 0 32 32" fill="none" xmlns="http://www.w3.org/2000/svg">
<path fill-rule="evenodd" clip-rule="evenodd" d="M15.5001 2C7.49297 2 1 8.42655 1 16.3544C1 22.6966 5.15473 28.0773 10.9161 29.9753C11.6407 30.1082 11.9068 29.6639 11.9068 29.2848C11.9068 28.9425 11.8933 27.8118 11.8871 26.6123C7.85315 27.4806 7.00194 24.9187 7.00194 24.9187C6.34234 23.2595 5.39196 22.8183 5.39196 22.8183C4.07636 21.9274 5.49113 21.9457 5.49113 21.9457C6.94719 22.047 7.71388 23.4249 7.71388 23.4249C9.00715 25.6194 11.106 24.985 11.9334 24.6182C12.0636 23.6904 12.4394 23.0572 12.854 22.6987C9.63337 22.3358 6.24773 21.1049 6.24773 15.6047C6.24773 14.0375 6.81417 12.757 7.74173 11.7518C7.59118 11.3902 7.09486 9.93027 7.8822 7.95305C7.8822 7.95305 9.09983 7.56725 11.8708 9.42443C13.0274 9.10639 14.2678 8.94689 15.5001 8.94142C16.7324 8.94689 17.9738 9.10639 19.1326 9.42443C21.9002 7.56725 23.1161 7.95305 23.1161 7.95305C23.9054 9.93027 23.4088 11.3902 23.2583 11.7518C24.188 12.757 24.7506 14.0375 24.7506 15.6047C24.7506 21.118 21.3585 22.332 18.1296 22.6873C18.6497 23.1328 19.1131 24.0064 19.1131 25.3456C19.1131 27.2662 19.0963 28.812 19.0963 29.2848C19.0963 29.6668 19.3573 30.1144 20.0923 29.9734C25.8506 28.0732 30 22.6945 30 16.3544C30 8.42655 23.508 2 15.5001 2ZM6.43077 22.4482C6.39883 22.5195 6.2855 22.5409 6.18225 22.4919C6.07708 22.4451 6.01801 22.3479 6.0521 22.2763C6.08332 22.2029 6.19689 22.1825 6.30182 22.2317C6.40724 22.2785 6.46726 22.3767 6.43077 22.4482ZM7.14401 23.0782C7.07486 23.1417 6.93967 23.1122 6.84795 23.0119C6.7531 22.9118 6.73533 22.778 6.80545 22.7136C6.87676 22.6501 7.00787 22.6798 7.10295 22.7799C7.1978 22.8812 7.21629 23.014 7.14401 23.0782ZM7.63332 23.8843C7.54448 23.9454 7.39921 23.8881 7.30941 23.7605C7.22056 23.6328 7.22056 23.4798 7.31133 23.4184C7.40137 23.3571 7.54448 23.4122 7.63548 23.5389C7.72409 23.6687 7.72409 23.8218 7.63332 23.8843ZM8.46086 24.8179C8.38138 24.9047 8.2121 24.8814 8.0882 24.763C7.96142 24.6472 7.92612 24.483 8.00584 24.3962C8.08628 24.3092 8.25652 24.3337 8.38138 24.4511C8.5072 24.5666 8.54562 24.7321 8.46086 24.8179ZM9.53036 25.1331C9.49531 25.2455 9.33227 25.2966 9.16803 25.2488C9.00403 25.1996 8.8967 25.0679 8.92983 24.9543C8.96393 24.8412 9.12769 24.7879 9.29313 24.839C9.45689 24.888 9.56446 25.0187 9.53036 25.1331ZM10.7475 25.2667C10.7516 25.3851 10.6123 25.4833 10.4399 25.4854C10.2666 25.4892 10.1263 25.3934 10.1244 25.277C10.1244 25.1574 10.2605 25.0602 10.4339 25.0573C10.6063 25.054 10.7475 25.1491 10.7475 25.2667ZM11.9432 25.2214C11.9639 25.3369 11.844 25.4555 11.6728 25.4871C11.5045 25.5176 11.3487 25.4462 11.3273 25.3317C11.3064 25.2133 11.4284 25.0947 11.5965 25.064C11.7679 25.0345 11.9214 25.1039 11.9432 25.2214Z" fill="#68F522"/>
</svg>
