<svg width="144" height="46" viewBox="0 0 144 46" fill="none" xmlns="http://www.w3.org/2000/svg">
<g clip-path="url(#clip0_228_80)">
<path d="M42.9994 7.59055H68.9805V12.374H47.3044V18.8996H65.8047V23.6929H47.3044C47.4556 26.3996 47.1531 28.752 47.3044 31.3898H69.2124V36.1732H42.9994V7.59055Z" fill="#68F522"/>
<path d="M143.072 9.18505C141.953 11.4193 141.227 12.8858 140.451 14.441C134.553 12.1476 127.667 10.3071 121.749 13.0532C119.531 14.4803 119.451 17.2756 122.263 18.0532C129.27 20.3858 143.032 17.128 143.95 26.4685C145.391 41.2028 123.261 37.7677 114.45 32.4528C115.367 30.3858 116.063 28.8209 116.88 26.9902C124.834 35.0413 146.006 31.1437 137.497 24.9626C133.031 21.7146 126.357 23.5453 120.983 22.0591C118.069 21.1732 116.053 19.3524 115.861 16.124C115.73 3.4567 134.684 7.00001 143.093 9.19489L143.072 9.18505Z" fill="#68F522"/>
<path d="M4.61752 18.6732H25.6484V7.65946H30.3365V36.1634H25.6484V24.0669H4.61752V36.2717H0V7.63977H4.61752V18.6732Z" fill="#68F522"/>
<path d="M77.3081 7.41339C79.264 7.41339 82.7423 7.47245 82.7423 7.47245L93.0258 20.5433L104.025 7.39371C104.025 7.39371 107.846 7.41339 109.207 7.41339C107.967 8.96851 95.4051 24.5295 95.4051 24.5295V36.2323H90.7775V24.5295C90.7775 24.5295 78.155 8.5256 77.3182 7.41339H77.3081Z" fill="#68F522"/>
</g>
<defs>
<clipPath id="clip0_228_80">
<rect width="144" height="46" fill="white"/>
</clipPath>
</defs>
</svg>
