<svg width="199" height="46" viewBox="0 0 199 46" fill="none" xmlns="http://www.w3.org/2000/svg">
<path d="M19.1971 19.5822H6.69211V34.0395H0V-0.5H6.69211V13.5625H19.1971V-0.5H25.8892V34.0395H19.1971V19.5822Z" fill="#68F522"/>
<path d="M30.4988 21.7039C30.4988 17.5263 31.5083 14.3191 33.5273 12.0822C35.5464 9.8125 38.3795 8.67763 42.0268 8.67763C43.9807 8.67763 45.6741 8.99013 47.1069 9.61513C48.5398 10.2401 49.7284 11.1283 50.6728 12.2796C51.6172 13.398 52.3173 14.7632 52.7732 16.375C53.2617 17.9868 53.506 19.7632 53.506 21.7039C53.506 25.8816 52.4964 29.1053 50.4774 31.375C48.4909 33.6118 45.6741 34.7303 42.0268 34.7303C40.0729 34.7303 38.3795 34.4178 36.9466 33.7928C35.5138 33.1678 34.3089 32.2961 33.3319 31.1776C32.3876 30.0263 31.6711 28.6447 31.1826 27.0329C30.7267 25.4211 30.4988 23.6447 30.4988 21.7039ZM37.0443 21.7039C37.0443 22.7895 37.142 23.7928 37.3374 24.7138C37.5328 25.6349 37.8259 26.4408 38.2167 27.1316C38.6075 27.8224 39.1122 28.3651 39.731 28.7599C40.3823 29.1217 41.1475 29.3026 42.0268 29.3026C43.6876 29.3026 44.9251 28.6941 45.7392 27.477C46.5533 26.2599 46.9604 24.3355 46.9604 21.7039C46.9604 19.4342 46.5859 17.6086 45.8369 16.227C45.0879 14.8125 43.8179 14.1053 42.0268 14.1053C40.4637 14.1053 39.2425 14.6974 38.3632 15.8816C37.484 17.0658 37.0443 19.0066 37.0443 21.7039Z" fill="#68F522"/>
<path d="M72.8549 34.0395V20.0263C72.8549 18.0197 72.5618 16.5724 71.9757 15.6842C71.422 14.7961 70.4614 14.352 69.0937 14.352C67.8887 14.352 66.863 14.7138 66.0163 15.4375C65.2021 16.1283 64.616 17 64.2577 18.0526V34.0395H57.9076V9.36842H62.9389L63.6716 12.625H63.867C64.616 11.5724 65.6092 10.6513 66.8467 9.86184C68.0841 9.07237 69.6798 8.67763 71.6337 8.67763C72.8386 8.67763 73.9133 8.84211 74.8577 9.17105C75.802 9.5 76.5999 10.0428 77.2512 10.7993C77.9025 11.5559 78.391 12.5921 78.7166 13.9079C79.0423 15.1908 79.2051 16.7862 79.2051 18.6941V34.0395H72.8549Z" fill="#68F522"/>
<path d="M105.188 34.0395C105.188 37.625 104.227 40.2566 102.306 41.9342C100.385 43.6447 97.6982 44.5 94.2463 44.5C91.9016 44.5 90.0454 44.3355 88.6777 44.0066C87.3425 43.6776 86.333 43.3322 85.6491 42.9704L86.968 37.8882C87.717 38.1842 88.58 38.4803 89.5569 38.7763C90.5665 39.0724 91.8039 39.2204 93.2694 39.2204C95.4838 39.2204 96.9818 38.727 97.7633 37.7401C98.5774 36.7862 98.9845 35.4375 98.9845 33.6941V32.1151H98.7891C97.6493 33.6612 95.6303 34.4342 92.732 34.4342C89.5732 34.4342 87.2123 33.4474 85.6491 31.4737C84.1186 29.5 83.3533 26.4079 83.3533 22.1974C83.3533 17.7895 84.3954 14.4507 86.4795 12.1809C88.5637 9.91118 91.5923 8.77632 95.5652 8.77632C97.6493 8.77632 99.5056 8.92434 101.134 9.2204C102.795 9.51645 104.146 9.86184 105.188 10.2566V34.0395ZM94.4417 29.3026C95.6792 29.3026 96.6235 29.023 97.2748 28.4638C97.9587 27.9046 98.4798 27.0658 98.838 25.9474V14.8454C97.8285 14.4178 96.5747 14.2039 95.0767 14.2039C93.4485 14.2039 92.1784 14.8289 91.2666 16.0789C90.3548 17.2961 89.8989 19.2533 89.8989 21.9507C89.8989 24.352 90.2897 26.1776 91.0712 27.4276C91.8528 28.6776 92.9763 29.3026 94.4417 29.3026Z" fill="#68F522"/>
<path d="M137.385 16.1283L138.118 9.26974H137.825L135.724 14.7961L128.446 27.6743H126.297L118.628 14.7467L116.478 9.26974H116.234L117.211 16.0789V34.0395H110.861V-0.5H116.967L126.101 15.2895L127.713 19.2368H127.909L129.374 15.1908L138.02 -0.5H144.077V34.0395H137.385V16.1283Z" fill="#68F522"/>
<path d="M149.636 10.7993C150.939 10.2072 152.486 9.74671 154.277 9.41776C156.068 9.05592 157.94 8.875 159.894 8.875C161.588 8.875 163.004 9.08882 164.144 9.51645C165.284 9.91118 166.179 10.4868 166.831 11.2434C167.515 12 167.987 12.9046 168.247 13.9572C168.54 15.0099 168.687 16.1941 168.687 17.5099C168.687 18.9572 168.638 20.4211 168.54 21.9013C168.443 23.3487 168.377 24.7796 168.345 26.1941C168.345 27.6086 168.394 28.9901 168.491 30.3388C168.589 31.6546 168.833 32.9046 169.224 34.0888H164.046L163.021 30.6842H162.776C162.125 31.7039 161.213 32.5921 160.041 33.3487C158.901 34.0724 157.419 34.4342 155.596 34.4342C154.456 34.4342 153.43 34.2697 152.518 33.9408C151.607 33.5789 150.825 33.0855 150.174 32.4605C149.522 31.8026 149.018 31.0461 148.659 30.1908C148.301 29.3026 148.122 28.3158 148.122 27.2303C148.122 25.7171 148.448 24.4507 149.099 23.4309C149.783 22.3783 150.744 21.5395 151.981 20.9145C153.251 20.2566 154.749 19.8125 156.475 19.5822C158.233 19.3191 160.187 19.2368 162.337 19.3355C162.565 17.4934 162.434 16.1776 161.946 15.3882C161.457 14.5658 160.366 14.1546 158.673 14.1546C157.403 14.1546 156.052 14.2862 154.619 14.5493C153.218 14.8125 152.062 15.1579 151.151 15.5855L149.636 10.7993ZM157.696 29.1546C158.966 29.1546 159.976 28.875 160.725 28.3158C161.474 27.7237 162.027 27.0987 162.386 26.4408V23.2336C161.376 23.1349 160.399 23.1184 159.455 23.1842C158.543 23.25 157.729 23.398 157.012 23.6283C156.296 23.8586 155.726 24.1875 155.303 24.6151C154.879 25.0428 154.668 25.5855 154.668 26.2434C154.668 27.1645 154.928 27.8882 155.449 28.4145C156.003 28.9079 156.752 29.1546 157.696 29.1546Z" fill="#68F522"/>
<path d="M180.561 25.75C180.561 26.9013 180.708 27.7401 181.001 28.2664C181.294 28.7928 181.766 29.0559 182.418 29.0559C182.808 29.0559 183.183 29.023 183.541 28.9572C183.932 28.8914 184.404 28.7434 184.958 28.5132L185.642 33.5461C185.12 33.8092 184.323 34.0724 183.248 34.3355C182.173 34.5987 181.066 34.7303 179.926 34.7303C178.07 34.7303 176.654 34.3026 175.677 33.4474C174.7 32.5592 174.211 31.1118 174.211 29.1053V-0.5H180.561V25.75Z" fill="#68F522"/>
<path d="M194.92 25.75C194.92 26.9013 195.066 27.7401 195.359 28.2664C195.653 28.7928 196.125 29.0559 196.776 29.0559C197.167 29.0559 197.541 29.023 197.9 28.9572C198.29 28.8914 198.763 28.7434 199.316 28.5132L200 33.5461C199.479 33.8092 198.681 34.0724 197.606 34.3355C196.532 34.5987 195.425 34.7303 194.285 34.7303C192.429 34.7303 191.012 34.3026 190.035 33.4474C189.058 32.5592 188.57 31.1118 188.57 29.1053V-0.5H194.92V25.75Z" fill="#68F522"/>
</svg>
