<svg width="64" height="64" viewBox="0 0 64 64" fill="none" xmlns="http://www.w3.org/2000/svg">
<g clip-path="url(#clip0_121_22)">
<path fill-rule="evenodd" clip-rule="evenodd" d="M56.616 0H7.384C3.30667 0 0 3.30667 0 7.384V56.6107C0 60.6933 3.30667 64 7.384 64H56.6187C60.696 64 64 60.6933 64 56.6107V7.384C64 3.30667 60.696 0 56.616 0ZM32 19.6933C38.7973 19.6933 44.3093 25.2 44.3093 32C44.3093 38.7973 38.7973 44.3093 32 44.3093C25.2027 44.3093 19.6933 38.7947 19.6933 32C19.6933 25.2 25.2027 19.6933 32 19.6933ZM56 53.5413C56 54.8987 54.8987 56 53.536 56H10.464C9.10133 56 8 54.8987 8 53.5413V26.6667H13.0587C12.824 27.5067 12.6507 28.3733 12.5253 29.256C12.392 30.1547 12.3093 31.0667 12.3093 32C12.3093 42.8773 21.1253 51.6933 32 51.6933C42.8747 51.6933 51.6907 42.8773 51.6907 32C51.6907 31.0667 51.608 30.1547 51.4747 29.2587C51.3493 28.376 51.176 27.5093 50.9413 26.6693H56V53.5413ZM56 16.2613C56 17.6187 54.8987 18.7227 53.536 18.7227H47.7387C46.376 18.7227 45.2773 17.6187 45.2773 16.2613V10.4613C45.2773 9.10133 46.376 8 47.7387 8H53.536C54.8987 8 56 9.10133 56 10.4613V16.2613Z" fill="black"/>
</g>
<defs>
<clipPath id="clip0_121_22">
<rect width="64" height="64" fill="white"/>
</clipPath>
</defs>
</svg>
