<svg width="33" height="34" viewBox="0 0 33 34" fill="none" xmlns="http://www.w3.org/2000/svg">
<path fill-rule="evenodd" clip-rule="evenodd" d="M17.192 10.402C15.2585 10.402 13.4043 11.17 12.0372 12.5372C10.67 13.9043 9.90198 15.7585 9.90198 17.692C9.90198 19.6254 10.67 21.4796 12.0372 22.8468C13.4043 24.2139 15.2585 24.982 17.192 24.982C19.1254 24.982 20.9796 24.2139 22.3468 22.8468C23.7139 21.4796 24.482 19.6254 24.482 17.692C24.482 15.7585 23.7139 13.9043 22.3468 12.5372C20.9796 11.17 19.1254 10.402 17.192 10.402ZM17.192 22.416C16.5703 22.416 15.9547 22.2935 15.3804 22.0556C14.806 21.8177 14.2841 21.469 13.8445 21.0294C13.4049 20.5898 13.0562 20.068 12.8183 19.4936C12.5804 18.9192 12.458 18.3037 12.458 17.682C12.458 17.0603 12.5804 16.4447 12.8183 15.8704C13.0562 15.296 13.4049 14.7741 13.8445 14.3345C14.2841 13.8949 14.806 13.5462 15.3804 13.3083C15.9547 13.0704 16.5703 12.948 17.192 12.948C18.4475 12.948 19.6516 13.4467 20.5394 14.3345C21.4272 15.2223 21.926 16.4264 21.926 17.682C21.926 18.9375 21.4272 20.1416 20.5394 21.0294C19.6516 21.9172 18.4475 22.416 17.192 22.416Z" fill="black"/>
<path d="M26.471 10.114C26.471 10.5649 26.2919 10.9973 25.9731 11.3161C25.6543 11.6349 25.2219 11.814 24.771 11.814C24.3202 11.814 23.8878 11.6349 23.569 11.3161C23.2502 10.9973 23.071 10.5649 23.071 10.114C23.071 9.66313 23.2502 9.23073 23.569 8.91192C23.8878 8.59311 24.3202 8.414 24.771 8.414C25.2219 8.414 25.6543 8.59311 25.9731 8.91192C26.2919 9.23073 26.471 9.66313 26.471 10.114Z" fill="black"/>
<path fill-rule="evenodd" clip-rule="evenodd" d="M17.192 3.5C13.333 3.5 12.856 3.5 11.344 3.59C10.168 3.613 9.005 3.835 7.904 4.246C6.95432 4.60034 6.09478 5.16039 5.387 5.886C4.66551 6.59735 4.10581 7.45584 3.746 8.403C3.33714 9.50544 3.11542 10.6685 3.09 11.844C3.02 13.356 3 13.834 3 17.692C3 21.551 3 22.028 3.09 23.54C3.113 24.716 3.335 25.88 3.746 26.981C4.101 27.931 4.661 28.79 5.386 29.497C6.09733 30.2185 6.95583 30.7782 7.903 31.138C9.006 31.548 10.169 31.769 11.344 31.795C12.856 31.865 13.334 31.885 17.192 31.885C21.051 31.885 21.529 31.885 23.04 31.795C24.2158 31.7713 25.3792 31.5492 26.481 31.138C27.4303 30.7835 28.2895 30.2235 28.997 29.498C29.7207 28.7884 30.2807 27.9294 30.638 26.981C31.048 25.879 31.269 24.716 31.295 23.541C31.365 22.028 31.385 21.551 31.385 17.692C31.385 13.834 31.385 13.356 31.295 11.844C31.2712 10.6685 31.0491 9.50551 30.638 8.404C30.2837 7.4543 29.7236 6.59476 28.998 5.887C28.2885 5.16329 27.4295 4.60324 26.481 4.246C25.3789 3.83725 24.2162 3.61553 23.041 3.59C21.537 3.51 21.05 3.5 17.19 3.5H17.192ZM17.192 6.056C20.982 6.056 21.429 6.056 22.931 6.136C23.831 6.148 24.721 6.313 25.566 6.623C26.1776 6.86087 26.7331 7.22327 27.1972 7.68721C27.6613 8.15115 28.0239 8.70649 28.262 9.318C28.5782 10.1612 28.7431 11.0535 28.749 11.954C28.819 13.445 28.829 13.943 28.829 17.692V17.694C28.829 21.442 28.829 21.929 28.749 23.431C28.737 24.331 28.572 25.221 28.262 26.066C28.024 26.6775 27.6614 27.2329 27.1973 27.6969C26.7331 28.1608 26.1776 28.5232 25.566 28.761C24.7232 29.0775 23.8312 29.2427 22.931 29.249C21.439 29.319 20.941 29.329 17.192 29.329C13.442 29.329 12.955 29.329 11.454 29.249C10.5541 29.2366 9.66274 29.0716 8.818 28.761C8.20652 28.5231 7.65119 28.1607 7.18724 27.6968C6.7233 27.2328 6.36088 26.6775 6.123 26.066C5.80686 25.2232 5.642 24.3311 5.636 23.431C5.566 21.939 5.556 21.441 5.556 17.692C5.556 13.942 5.556 13.455 5.636 11.954C5.648 11.054 5.813 10.163 6.123 9.318C6.36093 8.70655 6.72337 8.15124 7.18731 7.68731C7.65124 7.22337 8.20655 6.86093 8.818 6.623C9.66114 6.30675 10.5535 6.14188 11.454 6.136C12.955 6.066 13.443 6.056 17.192 6.056Z" fill="black"/>
</svg>
