<svg width="55" height="54" viewBox="0 0 55 54" fill="none" xmlns="http://www.w3.org/2000/svg">
<g clip-path="url(#clip0_247_184)">
<path fill-rule="evenodd" clip-rule="evenodd" d="M42.7038 6.68263H2.37158V46.5948H42.7038V42.5843C43.8508 43.2724 45.2957 43.6876 47.049 43.6876C50.6577 43.6876 53.3443 41.8135 53.3443 38.3935C53.3443 35.2209 51.522 33.8098 48.2945 32.4261L47.3447 32.0192C45.7149 31.3132 45.0089 30.8515 45.0089 29.7121C45.0089 28.79 45.7141 28.084 46.827 28.084C47.918 28.084 48.6206 28.544 49.2718 29.7121L52.2301 27.8128C50.979 25.6118 49.2423 24.7711 46.827 24.7711C45.0897 24.7711 43.6729 25.3396 42.7038 26.277V6.68263ZM42.7038 33.5734C41.7903 32.6451 41.2634 31.4529 41.2634 29.7891C41.2634 28.3987 41.7803 27.1704 42.7038 26.277V33.5734ZM42.7038 33.5734C43.4887 34.3708 44.559 34.9736 45.8257 35.5131L46.7752 35.9205C48.508 36.6782 49.5409 37.1399 49.5409 38.4423C49.5409 39.5291 48.5354 40.316 46.9613 40.316C45.0872 40.316 44.0278 39.3387 43.2136 38.0089L42.7038 38.3051V33.5734ZM42.7038 38.3051V42.5843C41.5429 41.8877 40.6872 40.9114 40.1261 39.8029L42.7038 38.3051ZM33.2571 40.316C31.383 40.316 30.3236 39.3387 29.5094 38.0089C29.5094 38.0089 26.4223 39.8025 26.4223 39.8034C27.5378 42.0069 29.817 43.688 33.3452 43.688C36.9539 43.688 39.6405 41.8139 39.6405 38.394C39.6405 35.2213 37.8182 33.8102 34.5903 32.4261L33.6405 32.0192C32.0107 31.3132 31.3047 30.8515 31.3047 29.7121C31.3047 28.79 32.0099 28.084 33.1227 28.084C34.2138 28.084 34.9164 28.544 35.5676 29.7121L38.5259 27.8128C37.2748 25.6118 35.5381 24.7711 33.1227 24.7711C29.7297 24.7711 27.5592 26.9399 27.5592 29.7891C27.5592 32.8822 29.3802 34.3455 32.1215 35.5131L33.071 35.9205C34.8038 36.6782 35.8367 37.1399 35.8367 38.4423C35.8367 39.5291 34.8312 40.316 33.2571 40.316ZM18.5346 40.2924C17.2296 40.2924 16.6866 39.3973 16.0897 38.3383L12.9966 40.2103C13.8926 42.1062 15.6541 43.6803 18.6959 43.6803C22.0623 43.6803 24.3685 41.8897 24.3685 37.9563V24.9876H20.5699V37.9053C20.5699 39.8042 19.7826 40.2924 18.5346 40.2924Z" fill="#F7DF1E"/>
</g>
<defs>
<clipPath id="clip0_247_184">
<rect width="51.3443" height="51.3443" fill="white" transform="translate(2 1)"/>
</clipPath>
</defs>
</svg>
