<svg width="32" height="32" viewBox="0 0 32 32" fill="none" xmlns="http://www.w3.org/2000/svg">
<path d="M26.627 26.113H22.445V19.551C22.445 17.989 22.445 15.968 20.26 15.968C18.075 15.968 17.73 17.676 17.73 19.437V26.113H13.548V12.573H17.584V14.416H17.647C18.0519 13.7275 18.636 13.1618 19.337 12.779C20.0387 12.3956 20.831 12.209 21.63 12.239C25.895 12.239 26.68 15.031 26.68 18.676L26.627 26.113ZM8.74 10.77C8.25705 10.7697 7.78493 10.6269 7.38287 10.3593C6.98081 10.0917 6.66672 9.7114 6.48 9.266C6.29457 8.82054 6.24595 8.32997 6.34033 7.85678C6.43472 7.38359 6.66785 6.94922 7.01 6.609C7.35265 6.26768 7.78865 6.0354 8.26307 5.94144C8.7375 5.84748 9.22912 5.89604 9.676 6.081C10.1219 6.26539 10.5032 6.57765 10.7719 6.9784C11.0406 7.37916 11.1847 7.85049 11.186 8.333C11.186 8.979 10.929 9.599 10.47 10.056C10.0105 10.5135 9.38841 10.7702 8.74 10.77ZM10.831 26.113H6.648V12.573H10.83L10.831 26.113ZM4.526 2C3.972 2 3.44 2.22 3.048 2.61C2.8539 2.8031 2.69984 3.03262 2.59465 3.28539C2.48946 3.53816 2.4352 3.80921 2.435 4.083V28.301C2.435 28.854 2.655 29.383 3.048 29.774C3.44 30.164 3.972 30.384 4.526 30.384H28.73C29.284 30.384 29.816 30.164 30.208 29.774C30.6 29.384 30.82 28.854 30.82 28.301V4.041C30.8088 3.49541 30.5836 2.97609 30.193 2.595C29.8016 2.2134 29.2766 1.99988 28.73 2H4.526Z" fill="#68F522"/>
</svg>
