<svg width="160" height="33" viewBox="0 0 160 33" fill="none" xmlns="http://www.w3.org/2000/svg">
<path d="M13.5822 30.955C12.0348 30.955 10.775 30.5384 9.80291 29.7051C8.85064 28.8719 8.3745 27.6419 8.3745 26.0151C8.3745 25.3405 8.4241 24.7355 8.52329 24.1998C8.62249 23.6443 8.72168 23.0987 8.82088 22.5631C8.93991 22.0274 8.99943 21.4422 8.99943 20.8073C8.99943 20.351 8.90023 19.9344 8.70184 19.5575C8.52329 19.1607 8.22571 18.8433 7.80909 18.6052C7.39247 18.3473 6.81714 18.1688 6.0831 18.0696V14.8557C6.81714 14.7565 7.39247 14.5878 7.80909 14.3498C8.22571 14.1117 8.52329 13.8042 8.70184 13.4272C8.90023 13.0305 8.99943 12.6039 8.99943 12.1476C8.99943 11.5326 8.93991 10.9573 8.82088 10.4216C8.72168 9.88599 8.62249 9.34042 8.52329 8.78493C8.4241 8.22944 8.3745 7.61443 8.3745 6.9399C8.3745 5.33295 8.85064 4.11285 9.80291 3.27961C10.775 2.42654 12.0348 2 13.5822 2H15.4868V5.33295H14.3262C13.612 5.33295 13.0863 5.49166 12.749 5.80908C12.4117 6.12651 12.2431 6.6324 12.2431 7.32676C12.2431 7.82274 12.2828 8.32863 12.3621 8.84445C12.4613 9.36026 12.5506 9.89591 12.63 10.4514C12.7292 11.0069 12.7788 11.6219 12.7788 12.2964C12.7788 13.3479 12.5208 14.2406 12.005 14.9747C11.5091 15.7087 10.6957 16.1948 9.56484 16.4329V16.4924C10.6957 16.7304 11.5091 17.2264 12.005 17.9803C12.5208 18.7143 12.7788 19.6071 12.7788 20.6586C12.7788 21.3529 12.7292 21.9778 12.63 22.5333C12.5506 23.0888 12.4613 23.6146 12.3621 24.1105C12.2828 24.6065 12.2431 25.1124 12.2431 25.6282C12.2431 26.3027 12.4117 26.8086 12.749 27.1459C13.0863 27.4832 13.612 27.6518 14.3262 27.6518H15.4868V30.955H13.5822Z" fill="#68F522"/>
<path d="M21.6963 25.9258L16.4588 5.09488H20.744L24.3746 22.1167H24.4341L28.6895 5.09488H33.2426L37.4683 22.1167H37.5278L41.0988 5.09488H45.4138L40.1168 25.9258H34.909L30.9214 10.2729H30.8917L26.8743 25.9258H21.6963Z" fill="#68F522"/>
<path d="M49.9138 26.2829C48.7036 26.2829 47.6918 26.0845 46.8785 25.6877C46.0849 25.291 45.4996 24.7553 45.1227 24.0808C44.7458 23.4062 44.5573 22.6623 44.5573 21.8489C44.5573 20.9363 44.7854 20.1427 45.2417 19.4682C45.7179 18.7739 46.4321 18.2283 47.3843 17.8315C48.3366 17.4347 49.5369 17.2363 50.9851 17.2363H54.6752C54.6752 16.5221 54.576 15.927 54.3776 15.4508C54.1792 14.9747 53.8618 14.6275 53.4253 14.4093C53.0087 14.1712 52.473 14.0522 51.8184 14.0522C51.0446 14.0522 50.38 14.2208 49.8245 14.5581C49.2889 14.8953 48.9516 15.4211 48.8128 16.1353H44.9144C45.0334 15.0441 45.3905 14.1018 45.9857 13.3082C46.6007 12.5147 47.4141 11.8996 48.4259 11.4632C49.4377 11.0267 50.5685 10.8085 51.8184 10.8085C53.2269 10.8085 54.447 11.0466 55.4786 11.5227C56.5103 11.979 57.3038 12.6634 57.8593 13.576C58.4148 14.4688 58.6926 15.5599 58.6926 16.8495V25.9258H55.3299L54.9132 23.6344H54.8537C54.6156 24.051 54.328 24.418 53.9907 24.7355C53.6733 25.0529 53.3063 25.3306 52.8897 25.5687C52.4929 25.8068 52.0465 25.9853 51.5505 26.1043C51.0546 26.2234 50.509 26.2829 49.9138 26.2829ZM51.0149 23.188C51.5505 23.188 52.0267 23.0987 52.4433 22.9202C52.8599 22.7218 53.2071 22.4639 53.4848 22.1465C53.7824 21.8291 54.0106 21.462 54.1693 21.0454C54.3478 20.609 54.4669 20.1626 54.5264 19.7063H51.4315C50.8165 19.7063 50.3106 19.7856 49.9138 19.9443C49.5369 20.0832 49.2492 20.2915 49.0508 20.5693C48.8723 20.8272 48.783 21.1347 48.783 21.4918C48.783 21.8489 48.8723 22.1564 49.0508 22.4143C49.2492 22.6722 49.517 22.8706 49.8543 23.0095C50.1916 23.1285 50.5784 23.188 51.0149 23.188Z" fill="#68F522"/>
<path d="M60.9358 25.9258V11.1656H64.4176L64.7449 13.6058H64.8044C65.2607 12.7527 65.9055 12.0782 66.7387 11.5822C67.5918 11.0664 68.6135 10.8085 69.8039 10.8085C71.0339 10.8085 72.0754 11.0763 72.9285 11.612C73.7816 12.1278 74.4363 12.8916 74.8926 13.9034C75.3489 14.9152 75.577 16.165 75.577 17.6529V25.9258H71.5596V18.01C71.5596 16.78 71.3116 15.8377 70.8156 15.183C70.3197 14.5283 69.536 14.201 68.4647 14.201C67.7902 14.201 67.1851 14.3696 66.6495 14.7069C66.1138 15.0243 65.6972 15.4905 65.3996 16.1055C65.102 16.7007 64.9532 17.4347 64.9532 18.3076V25.9258H60.9358Z" fill="#68F522"/>
<path d="M87.4708 26.2829C85.3878 26.2829 83.5824 25.8365 82.0548 24.9438C80.547 24.0312 79.3865 22.7714 78.5731 21.1644C77.7597 19.5377 77.353 17.6629 77.353 15.5401C77.353 13.4173 77.7597 11.5425 78.5731 9.91575C79.4063 8.28895 80.5768 7.01926 82.0846 6.10667C83.5923 5.19407 85.3878 4.73778 87.4708 4.73778C90.0102 4.73778 92.0834 5.36271 93.6904 6.61256C95.3172 7.86242 96.3289 9.62808 96.7257 11.9096H92.2917C92.0536 10.7986 91.518 9.93559 90.6848 9.32058C89.8714 8.68573 88.7901 8.36831 87.4411 8.36831C86.1912 8.36831 85.1199 8.66589 84.2272 9.26106C83.3344 9.83639 82.65 10.6597 82.1738 11.731C81.6977 12.8023 81.4596 14.072 81.4596 15.5401C81.4596 17.0082 81.6977 18.2779 82.1738 19.3492C82.65 20.4205 83.3344 21.2438 84.2272 21.8191C85.1199 22.3746 86.1912 22.6524 87.4411 22.6524C88.7901 22.6524 89.8714 22.3647 90.6848 21.7894C91.518 21.214 92.0636 20.4006 92.3215 19.3492H96.7257C96.3289 21.5116 95.3172 23.2079 93.6904 24.4379C92.0834 25.6679 90.0102 26.2829 87.4708 26.2829Z" fill="#68F522"/>
<path d="M98.7909 25.9258V4.70802H102.779V13.4868H102.808C103.304 12.6535 103.969 11.9988 104.802 11.5227C105.635 11.0466 106.617 10.8085 107.748 10.8085C108.958 10.8085 109.98 11.0763 110.813 11.612C111.666 12.1278 112.311 12.8916 112.748 13.9034C113.204 14.9152 113.432 16.165 113.432 17.6529V25.9258H109.444V18.01C109.444 16.78 109.196 15.8377 108.7 15.183C108.224 14.5283 107.441 14.201 106.35 14.201C105.675 14.201 105.06 14.3696 104.505 14.7069C103.969 15.0243 103.552 15.4905 103.255 16.1055C102.957 16.7007 102.808 17.4347 102.808 18.3076V25.9258H98.7909Z" fill="#68F522"/>
<path d="M120.623 26.2829C119.413 26.2829 118.401 26.0845 117.587 25.6877C116.794 25.291 116.209 24.7553 115.832 24.0808C115.455 23.4062 115.266 22.6623 115.266 21.8489C115.266 20.9363 115.494 20.1427 115.951 19.4682C116.427 18.7739 117.141 18.2283 118.093 17.8315C119.045 17.4347 120.246 17.2363 121.694 17.2363H125.384C125.384 16.5221 125.285 15.927 125.086 15.4508C124.888 14.9747 124.571 14.6275 124.134 14.4093C123.718 14.1712 123.182 14.0522 122.527 14.0522C121.754 14.0522 121.089 14.2208 120.533 14.5581C119.998 14.8953 119.661 15.4211 119.522 16.1353H115.623C115.742 15.0441 116.099 14.1018 116.695 13.3082C117.31 12.5147 118.123 11.8996 119.135 11.4632C120.147 11.0267 121.277 10.8085 122.527 10.8085C123.936 10.8085 125.156 11.0466 126.188 11.5227C127.219 11.979 128.013 12.6634 128.568 13.576C129.124 14.4688 129.401 15.5599 129.401 16.8495V25.9258H126.039L125.622 23.6344H125.563C125.325 24.051 125.037 24.418 124.7 24.7355C124.382 25.0529 124.015 25.3306 123.599 25.5687C123.202 25.8068 122.755 25.9853 122.259 26.1043C121.763 26.2234 121.218 26.2829 120.623 26.2829ZM121.724 23.188C122.259 23.188 122.736 23.0987 123.152 22.9202C123.569 22.7218 123.916 22.4639 124.194 22.1465C124.491 21.8291 124.719 21.462 124.878 21.0454C125.057 20.609 125.176 20.1626 125.235 19.7063H122.14C121.525 19.7063 121.019 19.7856 120.623 19.9443C120.246 20.0832 119.958 20.2915 119.76 20.5693C119.581 20.8272 119.492 21.1347 119.492 21.4918C119.492 21.8489 119.581 22.1564 119.76 22.4143C119.958 22.6722 120.226 22.8706 120.563 23.0095C120.9 23.1285 121.287 23.188 121.724 23.188Z" fill="#68F522"/>
<path d="M131.645 25.9258V11.1656H135.126L135.454 13.6058H135.513C135.97 12.7527 136.614 12.0782 137.448 11.5822C138.301 11.0664 139.322 10.8085 140.513 10.8085C141.743 10.8085 142.784 11.0763 143.637 11.612C144.49 12.1278 145.145 12.8916 145.601 13.9034C146.058 14.9152 146.286 16.165 146.286 17.6529V25.9258H142.268V18.01C142.268 16.78 142.02 15.8377 141.525 15.183C141.029 14.5283 140.245 14.201 139.174 14.201C138.499 14.201 137.894 14.3696 137.358 14.7069C136.823 15.0243 136.406 15.4905 136.108 16.1055C135.811 16.7007 135.662 17.4347 135.662 18.3076V25.9258H131.645Z" fill="#68F522"/>
<path d="M150.115 30.955H148.211V27.6518H149.371C150.066 27.6518 150.581 27.4832 150.919 27.1459C151.276 26.8086 151.454 26.3027 151.454 25.6282C151.454 25.1124 151.405 24.6065 151.306 24.1105C151.226 23.6146 151.137 23.0888 151.038 22.5333C150.939 21.9778 150.889 21.3529 150.889 20.6586C150.889 19.6071 151.147 18.7143 151.663 17.9803C152.198 17.2264 153.022 16.7304 154.133 16.4924V16.4329C153.022 16.1948 152.198 15.7087 151.663 14.9747C151.147 14.2406 150.889 13.3479 150.889 12.2964C150.889 11.6219 150.939 11.0069 151.038 10.4514C151.137 9.89591 151.226 9.36026 151.306 8.84445C151.405 8.32863 151.454 7.82274 151.454 7.32676C151.454 6.6324 151.276 6.12651 150.919 5.80908C150.581 5.49166 150.056 5.33295 149.341 5.33295H148.211V2H150.115C151.682 2 152.942 2.42654 153.895 3.27961C154.847 4.11285 155.323 5.33295 155.323 6.9399C155.323 7.61443 155.263 8.22944 155.144 8.78493C155.045 9.34042 154.936 9.88599 154.817 10.4216C154.718 10.9573 154.668 11.5326 154.668 12.1476C154.668 12.6039 154.767 13.0305 154.966 13.4272C155.164 13.8042 155.472 14.1216 155.888 14.3795C156.325 14.6176 156.9 14.7763 157.614 14.8557V18.0696C156.9 18.1688 156.325 18.3473 155.888 18.6052C155.472 18.8433 155.164 19.1607 154.966 19.5575C154.767 19.9344 154.668 20.351 154.668 20.8073C154.668 21.4422 154.718 22.0274 154.817 22.5631C154.936 23.0987 155.045 23.6443 155.144 24.1998C155.263 24.7355 155.323 25.3405 155.323 26.0151C155.323 27.6419 154.847 28.8719 153.895 29.7051C152.942 30.5384 151.682 30.955 150.115 30.955Z" fill="#68F522"/>
</svg>
