<svg width="54" height="55" viewBox="0 0 54 55" fill="none" xmlns="http://www.w3.org/2000/svg">
<mask id="mask0_25_1390" style="mask-type:luminance" maskUnits="userSpaceOnUse" x="1" y="31" width="22" height="11">
<path d="M1.11621 31.085H22.5002V41.504H1.11621V31.085Z" fill="white"/>
</mask>
<g mask="url(#mask0_25_1390)">
<path d="M1.14868 39.1384H2.85207V32.4116L5.48907 38.2779C5.80014 38.9851 6.22623 39.2392 7.0614 39.2392C7.89657 39.2392 8.30607 38.9879 8.61756 38.2779L11.2548 32.4116V39.1409H12.9585V32.4227C12.9585 31.7674 12.6958 31.4504 12.1555 31.2867C10.8618 30.8826 9.99357 31.2322 9.60067 32.106L7.01289 37.8955L4.50653 32.1035C4.12979 31.2296 3.2454 30.88 1.95151 31.2842C1.41081 31.448 1.14868 31.765 1.14868 32.4202V39.1384ZM14.3743 33.6613H16.0772V37.3689C16.0613 37.5705 16.1417 38.0433 17.0749 38.0577C17.551 38.0653 20.7493 38.0577 20.7791 38.0577V33.6429H22.4857C22.4933 33.6429 22.4839 39.6625 22.4842 39.6882C22.4934 41.1728 20.6427 41.4954 19.7899 41.5203H14.4114V40.3738L19.7995 40.3735C20.8957 40.2573 20.7664 39.7125 20.7664 39.5289V39.0818H17.146C15.4616 39.0667 14.3892 38.3309 14.3757 37.4849C14.3745 37.4091 14.4122 33.6976 14.3747 33.661L14.3743 33.6613Z" fill="#00618A"/>
</g>
<path d="M23.799 39.1389H28.6963C29.2695 39.1389 29.8266 39.019 30.2692 38.8111C31.0063 38.4726 31.3666 38.0138 31.3666 37.4129V36.1678C31.3666 35.676 30.9571 35.2174 30.1548 34.9116C29.7289 34.7473 29.2048 34.6603 28.6971 34.6603H26.6332C25.9455 34.6603 25.6177 34.4526 25.536 33.994C25.5196 33.9394 25.5196 33.8929 25.5196 33.8409V33.0655C25.5196 33.0219 25.5196 32.9778 25.536 32.9233C25.6177 32.5738 25.798 32.4753 26.4039 32.4182C26.4532 32.4182 26.5186 32.407 26.5681 32.407H31.4326V31.2714H26.6499C25.9618 31.2714 25.6017 31.315 25.2739 31.4133C24.257 31.7302 23.8146 32.2353 23.8146 33.1092V34.1033C23.8146 34.8681 24.6831 35.5234 26.1404 35.6763C26.3045 35.6871 26.4681 35.698 26.6316 35.698H28.4007C28.4663 35.698 28.532 35.698 28.581 35.7091C29.1212 35.7528 29.351 35.8511 29.5146 36.0475C29.6155 36.1485 29.6458 36.2446 29.6458 36.3506V37.3447C29.6458 37.4649 29.5641 37.618 29.4002 37.7488C29.2527 37.8802 29.0071 37.9672 28.6794 37.9893C28.6137 37.9893 28.5648 38.0001 28.4994 38.0001H23.7986V39.1361L23.799 39.1389ZM41.9926 37.1619C41.9926 38.3307 42.8606 38.9862 44.6132 39.1173C44.7767 39.1299 44.9404 39.1371 45.1044 39.1389H49.5432V38.0029H45.0716C44.0726 38.0029 43.6958 37.7516 43.6958 37.1508V31.2736H41.9924V37.1613L41.9926 37.1619ZM32.4532 37.2209V33.1711C32.4532 32.1421 33.1753 31.518 34.6032 31.321C34.7557 31.2992 34.9089 31.2884 35.0629 31.2882H38.2963C38.4558 31.2884 38.6144 31.2992 38.7725 31.321C40.2004 31.518 40.9223 32.1418 40.9223 33.1711V37.2209C40.9223 38.0557 40.6156 38.5024 39.9087 38.7937L41.5867 40.309H39.6088L38.2513 39.0831L36.8847 39.1697H35.0629C34.7512 39.1697 34.4229 39.1258 34.0617 39.0273C32.9761 38.7318 32.4535 38.1625 32.4535 37.2209H32.4532ZM34.2919 37.12C34.2919 37.1748 34.3083 37.2294 34.3248 37.2952C34.4258 37.766 34.8663 38.0287 35.5366 38.0287H37.0841L35.6628 36.7449H37.6406L38.8777 37.8646C39.1062 37.7428 39.2564 37.5563 39.3068 37.3173C39.3233 37.2627 39.3233 37.2078 39.3233 37.153V33.2698C39.3233 33.2262 39.3233 33.1688 39.3068 33.1165C39.2059 32.6789 38.765 32.427 38.1087 32.427H35.5411C34.7838 32.427 34.294 32.7554 34.294 33.2698V37.1229L34.2919 37.12Z" fill="#E48E00"/>
<path d="M51.0409 29.3885C49.9939 29.3602 49.1939 29.4574 48.5102 29.7458C48.3159 29.828 48.0061 29.8299 47.9743 30.0736C48.081 30.1856 48.0979 30.3528 48.1825 30.4904C48.3458 30.7548 48.6217 31.1092 48.8674 31.2945C49.136 31.4975 49.4127 31.7146 49.7013 31.8907C50.2139 32.2033 50.7859 32.3819 51.2792 32.6949C51.5701 32.8792 51.8589 33.1116 52.1427 33.3201C52.2827 33.4232 52.3774 33.5834 52.5592 33.6478V33.6179C52.4633 33.4959 52.4388 33.3283 52.3509 33.2013L51.9639 32.814C51.5852 32.3089 51.105 31.8703 50.5943 31.5032C50.187 31.2107 49.2753 30.8157 49.1055 30.3414L49.0756 30.3116C49.3645 30.2788 49.7026 30.1745 49.9695 30.1033C50.4171 29.9832 50.8171 30.0142 51.2797 29.8949L51.905 29.716V29.5969C51.6713 29.3569 51.5047 29.0395 51.25 28.8225C50.5834 28.2542 49.8556 27.6872 49.1064 27.2136C48.6909 26.9511 48.1775 26.7808 47.7369 26.5583C47.5887 26.4835 47.3284 26.4447 47.2306 26.3198C46.9995 26.0249 46.8735 25.6506 46.695 25.3095C46.3214 24.5898 45.9542 23.8033 45.623 23.0459C45.397 22.5294 45.2494 22.0199 44.9681 21.5564C43.6162 19.3328 42.1607 17.9907 39.9068 16.6719C39.4271 16.3915 38.8497 16.2804 38.2392 16.1357L37.2565 16.0761C37.0567 15.9927 36.8486 15.7477 36.6609 15.6291C35.914 15.1567 33.9985 14.1306 33.4455 15.4775C33.0963 16.3294 33.9672 17.1606 34.2791 17.5925C34.4976 17.8955 34.7779 18.2347 34.934 18.5754C35.0366 18.7992 35.0546 19.0237 35.1425 19.2607C35.3588 19.8416 35.5471 20.4788 35.8271 21.0179C35.9686 21.2908 36.1245 21.5782 36.3035 21.8222C36.4134 21.9719 36.6015 22.0379 36.631 22.2692C36.4472 22.5269 36.4366 22.9258 36.3331 23.2522C35.8679 24.72 36.0432 26.5444 36.7201 27.6308C36.9279 27.9643 37.4169 28.6795 38.0897 28.4053C38.678 28.1654 38.5442 27.4227 38.7151 26.7671C38.7529 26.6181 38.7297 26.5095 38.8044 26.4098V26.4396L39.3405 27.5117C39.7369 28.1507 40.4411 28.8187 41.0375 29.2695C41.3468 29.5031 41.593 29.9073 41.9903 30.044V30.0142H41.9606C41.883 29.8929 41.7619 29.8432 41.6626 29.7464C41.4296 29.5177 41.1703 29.2337 40.9776 28.972C40.4349 28.235 39.9557 27.4289 39.5189 26.5891C39.3104 26.1883 39.1288 25.746 38.9535 25.3381C38.8858 25.1807 38.8865 24.9431 38.7452 24.8615C38.5525 25.1606 38.2688 25.4021 38.1198 25.755C37.8815 26.3194 37.8507 27.0073 37.7625 27.7211C37.7103 27.7397 37.7335 27.7269 37.703 27.7509C37.2885 27.6508 37.1425 27.2237 36.9885 26.8573C36.5987 25.9304 36.5266 24.4388 36.8694 23.3724C36.9577 23.0967 37.3591 22.2273 37.1968 21.9724C37.1193 21.7181 36.8635 21.5684 36.7203 21.3764C36.5437 21.1365 36.3664 20.8197 36.244 20.5424C35.9248 19.8201 35.7759 19.0094 35.4401 18.2787C35.2796 17.9297 35.0084 17.5766 34.7852 17.2685C34.5384 16.9249 34.2619 16.6714 34.0708 16.2582C34.0026 16.1104 33.9102 15.8743 34.0112 15.722C34.016 15.7001 34.0239 15.6793 34.0345 15.6597C34.0454 15.64 34.0586 15.6223 34.0745 15.6064C34.0902 15.5907 34.1081 15.5773 34.1276 15.5665C34.1473 15.5558 34.1681 15.5479 34.1899 15.5431C34.3626 15.4101 34.8438 15.5873 35.0236 15.6624C35.5007 15.8609 35.8996 16.0498 36.3041 16.3178C36.4984 16.4441 36.6946 16.6956 36.9292 16.7647H37.1968C37.6158 16.8614 38.0855 16.7951 38.4767 16.9138C39.169 17.1242 39.7891 17.4518 40.3525 17.8073C42.0689 18.8914 43.4717 20.4346 44.4316 22.2778C44.5862 22.5741 44.6529 22.8572 44.7888 23.1713C45.0633 23.8027 45.409 24.4576 45.6821 25.0775C45.9548 25.6963 46.2198 26.3201 46.6051 26.8348C46.8076 27.105 47.5897 27.2506 47.9449 27.4005C48.1941 27.5058 48.602 27.6158 48.8381 27.758C49.2888 28.0299 49.7256 28.3539 50.1485 28.6521C50.3597 28.801 51.0094 29.1277 51.0416 29.3965L51.0409 29.3885Z" fill="#00618A"/>
<path fill-rule="evenodd" clip-rule="evenodd" d="M37.7336 18.0407C37.5152 18.0368 37.3609 18.0645 37.1975 18.1003V18.1301H37.2273C37.3314 18.3443 37.5152 18.482 37.644 18.6663L37.9418 19.2917L37.9717 19.2619C38.1559 19.1318 38.2405 18.924 38.2393 18.6064C38.1653 18.5287 38.1545 18.4312 38.0903 18.3383C38.0053 18.2145 37.8378 18.1443 37.733 18.0403L37.7336 18.0407Z" fill="#00618A"/>
<path fill-rule="evenodd" clip-rule="evenodd" d="M50.344 37.9707C50.344 38.7208 50.9366 39.2265 51.5992 39.2265C52.262 39.2265 52.8544 38.7208 52.8544 37.9707C52.8544 37.2207 52.262 36.715 51.5992 36.715C50.9366 36.715 50.344 37.2207 50.344 37.9707ZM52.5733 37.9707C52.5733 38.54 52.1382 38.9654 51.5988 38.9654C51.0534 38.9654 50.6243 38.54 50.6243 37.9707C50.6243 37.4015 51.0529 36.9761 51.5988 36.9761C52.1378 36.9761 52.5733 37.4015 52.5733 37.9707ZM51.937 38.6875H52.2181L51.8065 38.0581C52.0274 38.0346 52.1946 37.9273 52.1946 37.6662C52.1946 37.3746 52.0103 37.2544 51.6557 37.2544H51.0966V38.6878H51.3377V38.0682H51.5619L51.9369 38.6878L51.937 38.6875ZM51.3377 37.8667V37.4549H51.6154C51.7594 37.4549 51.9335 37.4818 51.9335 37.6494C51.9335 37.8502 51.7763 37.8672 51.5953 37.8672H51.3377V37.8667Z" fill="#E48E00"/>
</svg>
