<svg width="54" height="54" viewBox="0 0 54 54" fill="none" xmlns="http://www.w3.org/2000/svg">
<path d="M46.34 13.6357L29.0309 3.47159C27.9393 2.8428 26.518 2.8428 25.4177 3.47159L7.92376 13.6357C6.79722 14.2911 6 15.5229 6 16.8404V37.1417C6 38.4592 6.81802 39.6914 7.94456 40.3504L12.5665 43.0052C14.7756 44.1056 15.5564 44.1056 16.5616 44.1056C19.8325 44.1056 21.7009 42.1053 21.7009 38.6164V18.5739C21.7009 18.2909 21.5553 17.8697 21.2805 17.8697H19.0734C18.7939 17.8697 18.1682 18.2909 18.1682 18.5735V38.616C18.1682 40.1626 16.785 41.7016 14.1998 40.3944L9.42398 37.6105C9.25755 37.5192 9.14019 37.3355 9.14019 37.1417V16.8404C9.14019 16.6491 9.35804 16.4569 9.52565 16.3589L26.9631 6.2122C27.126 6.11891 27.3654 6.11891 27.5279 6.2122L44.7527 16.3565C44.9175 16.4569 44.8594 16.6431 44.8594 16.8404V37.1417C44.8594 37.3355 44.9313 37.524 44.7684 37.6173L27.4636 47.7699C27.3152 47.86 27.1311 47.86 26.9686 47.7699L22.5303 45.0909C22.3965 45.0123 22.2375 44.9841 22.1092 45.0567C20.8743 45.7645 20.6466 45.8586 19.4883 46.2647C19.2033 46.3651 18.7829 46.5394 19.6492 47.0304L25.4578 50.5054C26.0123 50.8293 26.6414 50.9999 27.2818 51C27.9264 51 28.5575 50.8309 29.1137 50.5054L46.3396 40.3504C47.4662 39.6866 48 38.4592 48 37.1417V16.8404C48 15.5229 47.4662 14.2943 46.34 13.6357V13.6357ZM32.6563 33.9248C28.0535 33.9248 27.0396 32.6406 26.7017 30.3259C26.6624 30.0766 26.4532 29.7785 26.2024 29.7785H23.9528C23.6745 29.7785 23.4508 30.1199 23.4508 30.4002C23.4508 33.3639 25.0441 36.9548 32.6567 36.9548C38.1673 36.9548 41.3267 34.7893 41.3267 30.9571C41.3267 27.1574 38.7883 26.1602 33.4441 25.4449C28.0422 24.7228 27.4934 24.358 27.4934 23.0782C27.4934 22.0231 27.9581 20.6159 31.958 20.6159C35.5319 20.6159 36.8492 21.3916 37.3913 23.8277C37.4376 24.0567 37.6444 24.2211 37.878 24.2211H40.1366C40.2755 24.2211 40.4082 24.1643 40.5056 24.0639C40.5998 23.9559 40.6496 23.8205 40.637 23.6753C40.2873 19.4802 37.5314 17.5252 31.9576 17.5252C26.9996 17.5252 24.0419 19.6425 24.0419 23.1918C24.0419 27.0415 26.9847 28.1053 31.744 28.5813C37.4376 29.1458 37.8804 29.9873 37.8804 31.1198C37.8804 33.0868 36.3189 33.9248 32.6563 33.9248Z" fill="#83CD29"/>
</svg>
