<svg width="54" height="55" viewBox="0 0 54 55" fill="none" xmlns="http://www.w3.org/2000/svg">
<mask id="mask0_25_1368" style="mask-type:luminance" maskUnits="userSpaceOnUse" x="0" y="14" width="54" height="28">
<path d="M0.855957 14.2362H53.155V41.3802H0.855957V14.2362Z" fill="white"/>
</mask>
<g mask="url(#mask0_25_1368)">
<mask id="mask1_25_1368" style="mask-type:luminance" maskUnits="userSpaceOnUse" x="0" y="14" width="54" height="28">
<path d="M0.855713 27.8124C0.855713 35.3037 12.5634 41.3768 27.0045 41.3768C41.4456 41.3768 53.1533 35.3037 53.1533 27.8124C53.1533 20.3212 41.4456 14.2482 27.0045 14.2482C12.5634 14.2482 0.855713 20.3215 0.855713 27.8124Z" fill="white"/>
</mask>
<g mask="url(#mask1_25_1368)">
<mask id="mask2_25_1368" style="mask-type:luminance" maskUnits="userSpaceOnUse" x="0" y="14" width="54" height="28">
<path d="M0.855713 27.8121C0.855713 35.3033 12.5634 41.3765 27.0045 41.3765C41.4456 41.3765 53.1533 35.3033 53.1533 27.8121C53.1533 20.3208 41.4456 14.2478 27.0045 14.2478C12.5634 14.2478 0.855713 20.3211 0.855713 27.8121Z" fill="white"/>
</mask>
<g mask="url(#mask2_25_1368)">
<path d="M0.855713 14.2478V41.3765H53.1533V14.2478H0.855713Z" fill="url(#paint0_radial_25_1368)"/>
</g>
</g>
</g>
<path d="M27.0047 40.3698C40.8822 40.3698 52.1322 34.7479 52.1322 27.8127C52.1322 20.8776 40.8822 15.2557 27.0047 15.2557C13.1274 15.2557 1.87744 20.8776 1.87744 27.8127C1.87744 34.7479 13.1274 40.3698 27.0047 40.3698Z" fill="#777BB3"/>
<path d="M15.0624 29.3687C16.2036 29.3687 17.0554 29.1613 17.5943 28.7523C18.1275 28.3475 18.4958 27.6461 18.6889 26.6676C18.8689 25.753 18.8003 25.1144 18.4851 24.7698C18.1629 24.4179 17.4663 24.2393 16.4146 24.2393H14.5911L13.5801 29.3688H15.0624V29.3687ZM9.09839 35.6877C9.01374 35.6877 8.93344 35.6504 8.87958 35.5859C8.85258 35.5535 8.83388 35.5173 8.82347 35.4768C8.81307 35.4363 8.81194 35.3955 8.81996 35.3546L11.4991 21.7613C11.5022 21.7454 11.5067 21.7301 11.5126 21.7151C11.5184 21.7 11.5254 21.6855 11.5339 21.6716C11.5422 21.6578 11.5517 21.6447 11.5623 21.6325C11.573 21.6203 11.5846 21.609 11.5972 21.5989C11.6098 21.5886 11.6232 21.5795 11.6375 21.5715C11.6517 21.5636 11.6665 21.5568 11.6818 21.5514C11.6971 21.546 11.7129 21.5418 11.7291 21.5391C11.7451 21.5363 11.7614 21.5349 11.7777 21.5349H17.5521C19.3668 21.5349 20.7175 22.0199 21.5666 22.9793C22.4201 23.9427 22.6838 25.2896 22.3499 26.9822C22.2141 27.6718 21.9805 28.3122 21.6558 28.8858C21.3304 29.4598 20.9006 29.991 20.3781 30.4647C19.7523 31.0421 19.0441 31.4609 18.275 31.7073C17.518 31.9504 16.5462 32.0739 15.3859 32.0739H13.0477L12.38 35.4614C12.3768 35.4772 12.3724 35.4926 12.3665 35.5077C12.3608 35.5227 12.3537 35.5372 12.3453 35.551C12.337 35.5649 12.3274 35.578 12.3169 35.5902C12.3062 35.6025 12.2945 35.6137 12.282 35.6238C12.2693 35.6341 12.256 35.6433 12.2418 35.6513C12.2276 35.6591 12.2128 35.6659 12.1973 35.6714C12.182 35.6769 12.1663 35.6809 12.1502 35.6838C12.1341 35.6864 12.1179 35.6878 12.1016 35.6878H9.09769L9.09839 35.6877Z" fill="black"/>
<path d="M14.825 24.5194H16.4146C17.6839 24.5194 18.1249 24.7942 18.2747 24.9578C18.5233 25.2296 18.5701 25.8026 18.4104 26.6149C18.2309 27.5242 17.8982 28.1689 17.4214 28.5309C16.9331 28.9016 16.1394 29.0895 15.0626 29.0895H13.9249L14.8254 24.5194H14.825ZM17.5517 21.2552H11.7776C11.745 21.2552 11.7125 21.2581 11.6805 21.2635C11.6483 21.269 11.6168 21.2773 11.586 21.2882C11.5552 21.2991 11.5256 21.3125 11.4972 21.3284C11.4688 21.3444 11.442 21.3625 11.4168 21.3831C11.3916 21.4036 11.3683 21.4261 11.3471 21.4504C11.3258 21.4749 11.3068 21.5011 11.2901 21.5288C11.2734 21.5565 11.2592 21.5853 11.2476 21.6154C11.236 21.6455 11.227 21.6764 11.2208 21.7081L8.54159 35.3021C8.53765 35.3224 8.53484 35.3428 8.53315 35.3632C8.53146 35.3837 8.5309 35.4042 8.53146 35.4248C8.53202 35.4454 8.53385 35.4658 8.53666 35.4862C8.53962 35.5066 8.54355 35.5267 8.54876 35.5467C8.55382 35.5667 8.56015 35.5862 8.56746 35.6055C8.57477 35.6247 8.58307 35.6436 8.59249 35.6619C8.60191 35.6803 8.61246 35.698 8.62385 35.7152C8.63524 35.7325 8.64762 35.7489 8.66084 35.7648C8.67405 35.7807 8.68826 35.7959 8.70316 35.8101C8.71807 35.8244 8.73382 35.8379 8.75027 35.8506C8.76673 35.8632 8.78388 35.8749 8.8016 35.8857C8.81946 35.8964 8.83774 35.9063 8.85659 35.915C8.87543 35.9237 8.8947 35.9314 8.91452 35.9382C8.93421 35.9448 8.95432 35.9504 8.97457 35.9549C8.99496 35.9594 9.01549 35.9628 9.0363 35.965C9.05698 35.9673 9.07779 35.9684 9.0986 35.9684H12.1015C12.1341 35.9684 12.1666 35.9657 12.1988 35.9601C12.231 35.9546 12.2625 35.9465 12.2932 35.9355C12.324 35.9247 12.3535 35.9113 12.3819 35.8953C12.4103 35.8794 12.4372 35.8613 12.4624 35.8407C12.4877 35.8202 12.5109 35.7977 12.5321 35.7732C12.5535 35.7488 12.5725 35.7227 12.5892 35.695C12.6059 35.6673 12.62 35.6384 12.6317 35.6083C12.6433 35.5782 12.6523 35.5474 12.6585 35.5157L13.2816 32.3545H15.3859C16.5759 32.3545 17.5777 32.2265 18.3633 31.9742C19.1709 31.7155 19.9144 31.2766 20.5721 30.6701C21.116 30.1765 21.565 29.6226 21.9036 29.0232C22.2423 28.424 22.4872 27.7555 22.6288 27.0366C22.9803 25.2549 22.6948 23.8281 21.7806 22.7962C20.8752 21.7743 19.4525 21.2561 17.5523 21.2561M13.2365 29.6499H15.0631C16.2737 29.6499 17.1755 29.4251 17.768 28.9751C18.3604 28.5253 18.7602 27.7743 18.9679 26.7222C19.1666 25.7119 19.0762 24.9991 18.6965 24.5837C18.3169 24.1683 17.5559 23.9606 16.4153 23.9606H14.3578L13.2366 29.6497M17.5524 21.8156C19.2896 21.8156 20.5567 22.2651 21.3534 23.1642C22.1499 24.0632 22.3896 25.3183 22.0718 26.9297C21.941 27.5935 21.7198 28.2003 21.4084 28.7503C21.0969 29.3001 20.6893 29.8034 20.1862 30.2596C19.5866 30.813 18.9206 31.2071 18.1875 31.4423C17.4545 31.6777 16.5211 31.795 15.3861 31.795H12.8141L12.1018 35.4089H9.09902L11.7784 21.8166H17.5528" fill="white"/>
<path d="M29.2348 32.0738C29.15 32.0738 29.0697 32.0365 29.016 31.972C28.9622 31.9074 28.9401 31.8228 28.9564 31.7407L30.1414 25.7261C30.2542 25.1542 30.2264 24.7436 30.0632 24.5701C29.9634 24.464 29.6633 24.2863 28.7762 24.2863H26.6292L25.1391 31.8473C25.136 31.8631 25.1315 31.8786 25.1258 31.8937C25.1199 31.9087 25.1128 31.9232 25.1045 31.937C25.0961 31.9509 25.0867 31.9638 25.076 31.9761C25.0653 31.9883 25.0538 31.9996 25.0411 32.0098C25.0284 32.0201 25.0151 32.0292 25.0009 32.0372C24.9867 32.0451 24.9719 32.0519 24.9564 32.0573C24.9411 32.0627 24.9254 32.0669 24.9093 32.0696C24.8932 32.0724 24.877 32.0738 24.8605 32.0738H21.8814C21.8604 32.0738 21.8398 32.0716 21.8194 32.0671C21.799 32.0626 21.7793 32.0558 21.7605 32.0471C21.7415 32.0382 21.7238 32.0275 21.7072 32.0149C21.6907 32.0022 21.6758 31.9879 21.6624 31.972C21.6492 31.9561 21.6378 31.9389 21.6283 31.9205C21.6189 31.9021 21.6115 31.8828 21.6065 31.8629C21.6013 31.8429 21.5985 31.8225 21.5978 31.802C21.5972 31.7813 21.5989 31.7609 21.6028 31.7407L24.282 18.1474C24.2852 18.1315 24.2896 18.1162 24.2955 18.1012C24.3013 18.086 24.3084 18.0716 24.3167 18.0577C24.3252 18.0439 24.3346 18.0308 24.3453 18.0186C24.3558 18.0064 24.3675 17.9951 24.3802 17.9849C24.3927 17.9747 24.4062 17.9656 24.4204 17.9576C24.4346 17.9497 24.4494 17.943 24.4647 17.9375C24.4802 17.932 24.4959 17.9279 24.5119 17.9252C24.5281 17.9224 24.5443 17.921 24.5606 17.921H27.5399C27.5607 17.921 27.5814 17.9233 27.6019 17.9278C27.6223 17.9323 27.642 17.939 27.6608 17.9477C27.6798 17.9566 27.6975 17.9673 27.714 17.9799C27.7306 17.9926 27.7455 18.0069 27.7587 18.0228C27.772 18.0387 27.7834 18.0559 27.7929 18.0743C27.8023 18.0927 27.8096 18.112 27.8148 18.132C27.82 18.1519 27.8228 18.1722 27.8234 18.1928C27.8241 18.2135 27.8224 18.2339 27.8183 18.2542L27.1719 21.5351H29.4816C31.2411 21.5351 32.4343 21.8409 33.1294 22.4702C33.8387 23.1123 34.0588 24.1388 33.7864 25.5219L32.5399 31.8475C32.5368 31.8633 32.5323 31.8788 32.5266 31.8938C32.5207 31.9088 32.5136 31.9233 32.5052 31.9373C32.4969 31.951 32.4873 31.9641 32.4768 31.9763C32.4661 31.9886 32.4544 31.9998 32.4419 32.0101C32.4293 32.0204 32.4159 32.0294 32.4017 32.0374C32.3875 32.0454 32.3727 32.052 32.3573 32.0575C32.3419 32.063 32.3262 32.0671 32.31 32.0699C32.294 32.0725 32.2777 32.0739 32.2614 32.0739H29.235L29.2348 32.0738Z" fill="black"/>
<path d="M27.5403 17.6409H24.5612C24.5284 17.6409 24.4959 17.6436 24.4637 17.6492C24.4315 17.6547 24.4001 17.6628 24.3693 17.6738C24.3385 17.6846 24.309 17.698 24.2806 17.714C24.2522 17.7299 24.2253 17.748 24.2002 17.7686C24.1749 17.7891 24.1517 17.8116 24.1304 17.8361C24.109 17.8605 24.0901 17.8866 24.0733 17.9143C24.0567 17.942 24.0425 17.9709 24.0309 18.001C24.0192 18.0311 24.0103 18.0621 24.004 18.0937L21.3248 31.6868C21.3209 31.707 21.3181 31.7274 21.3164 31.7478C21.3145 31.7684 21.3141 31.7889 21.3147 31.8094C21.3152 31.8301 21.3169 31.8505 21.3199 31.8709C21.3227 31.8913 21.3268 31.9114 21.3318 31.9313C21.337 31.9513 21.3432 31.9709 21.3505 31.9901C21.3579 32.0094 21.3663 32.0282 21.3757 32.0465C21.3851 32.0649 21.3955 32.0827 21.4071 32.1C21.4185 32.1171 21.4308 32.1337 21.4441 32.1495C21.4573 32.1653 21.4715 32.1805 21.4864 32.1949C21.5013 32.2092 21.517 32.2227 21.5335 32.2352C21.55 32.2479 21.5671 32.2596 21.5848 32.2704C21.6027 32.2811 21.621 32.2909 21.6398 32.2996C21.6587 32.3085 21.6781 32.3162 21.6977 32.3228C21.7174 32.3296 21.7375 32.3351 21.7579 32.3396C21.7782 32.3441 21.7987 32.3475 21.8195 32.3497C21.8402 32.352 21.861 32.3531 21.8818 32.3531H24.8611C24.8937 32.3531 24.9262 32.3504 24.9584 32.3448C24.9906 32.3393 25.0221 32.3311 25.0528 32.3202C25.0836 32.3093 25.1132 32.296 25.1417 32.28C25.1701 32.2641 25.1968 32.2458 25.2221 32.2254C25.2473 32.2049 25.2705 32.1824 25.2918 32.1579C25.3131 32.1334 25.3321 32.1074 25.3488 32.0797C25.3655 32.052 25.3797 32.023 25.3913 31.9929C25.4029 31.9628 25.4119 31.9319 25.4181 31.9004L26.8636 24.5655H28.7768C29.6625 24.5655 29.8482 24.7522 29.8557 24.7602C29.9094 24.817 29.9801 25.0809 29.8634 25.6723L28.6784 31.6868C28.6744 31.707 28.6716 31.7274 28.6699 31.7478C28.6682 31.7684 28.6677 31.7889 28.6682 31.8094C28.6688 31.8301 28.6706 31.8505 28.6735 31.8709C28.6764 31.8913 28.6803 31.9114 28.6855 31.9313C28.6906 31.9513 28.6968 31.9709 28.7042 31.9901C28.7116 32.0094 28.7199 32.0282 28.7293 32.0465C28.7387 32.0649 28.7492 32.0827 28.7606 32.1C28.772 32.1171 28.7844 32.1337 28.7976 32.1496C28.8108 32.1653 28.825 32.1805 28.84 32.1949C28.855 32.2092 28.8706 32.2227 28.8871 32.2352C28.9035 32.2479 28.9207 32.2596 28.9385 32.2704C28.9562 32.2811 28.9745 32.2909 28.9934 32.2996C29.0124 32.3085 29.0316 32.3162 29.0513 32.3228C29.071 32.3296 29.0911 32.3351 29.1115 32.3396C29.1319 32.3441 29.1524 32.3475 29.1731 32.3497C29.1938 32.352 29.2146 32.3531 29.2355 32.3531H32.2619C32.2947 32.3531 32.327 32.3504 32.3592 32.3448C32.3914 32.3393 32.4229 32.3311 32.4537 32.3202C32.4845 32.3093 32.5141 32.296 32.5425 32.28C32.5709 32.2641 32.5977 32.2458 32.6229 32.2254C32.6482 32.2049 32.6714 32.1824 32.6927 32.1579C32.714 32.1334 32.733 32.1074 32.7496 32.0797C32.7663 32.052 32.7805 32.023 32.7922 31.9929C32.8039 31.9628 32.8127 31.9319 32.8191 31.9004L34.0656 25.5747C34.3581 24.09 34.1079 22.9761 33.3222 22.2638C32.5724 21.5849 31.3164 21.2547 29.4823 21.2547H27.5167L28.0976 18.3072C28.1017 18.2869 28.1045 18.2665 28.1062 18.246C28.1079 18.2256 28.1084 18.2051 28.1079 18.1844C28.1073 18.1639 28.1055 18.1435 28.1027 18.1231C28.0997 18.1027 28.0958 18.0826 28.0906 18.0626C28.0855 18.0427 28.0792 18.0231 28.0719 18.0038C28.0645 17.9846 28.0562 17.9657 28.0468 17.9473C28.0373 17.929 28.0269 17.9112 28.0155 17.894C28.0041 17.8769 27.9917 17.8603 27.9785 17.8444C27.9651 17.8285 27.9511 17.8134 27.9362 17.7991C27.9211 17.7847 27.9055 17.7712 27.8889 17.7586C27.8725 17.7459 27.8554 17.7343 27.8376 17.7236C27.8199 17.7127 27.8014 17.7029 27.7826 17.6942C27.7637 17.6855 27.7445 17.6777 27.7248 17.671C27.705 17.6644 27.685 17.6587 27.6646 17.6542C27.6442 17.6497 27.6237 17.6464 27.603 17.6441C27.5822 17.6419 27.5614 17.6407 27.5406 17.6407M27.5406 18.2003L26.8285 21.8144H29.4825C31.1524 21.8144 32.3042 22.1018 32.9383 22.6758C33.5724 23.25 33.7621 24.1812 33.5088 25.4681L32.2622 31.7935H29.2358L30.4209 25.7791C30.5557 25.095 30.5061 24.6283 30.2719 24.3795C30.0378 24.1306 29.5394 24.006 28.7772 24.006H26.3957L24.8611 31.7935H21.882L24.5612 18.2003H27.5403" fill="white"/>
<path d="M38.5005 29.369C39.6416 29.369 40.4935 29.1616 41.0323 28.7526C41.5656 28.3478 41.9339 27.6465 42.127 26.6679C42.307 25.7532 42.2383 25.1147 41.9232 24.7701C41.6009 24.4181 40.9042 24.2396 39.8526 24.2396H38.0292L37.0181 29.3691H38.5004L38.5005 29.369ZM32.5362 35.6877C32.4515 35.6877 32.3712 35.6504 32.3174 35.5859C32.2904 35.5535 32.2717 35.5173 32.2613 35.4768C32.2509 35.4363 32.2496 35.3955 32.2578 35.3546L34.9369 21.7613C34.94 21.7454 34.9445 21.7301 34.9503 21.7151C34.9562 21.6999 34.9632 21.6855 34.9717 21.6716C34.98 21.6578 34.9895 21.6447 35.0001 21.6325C35.0108 21.6203 35.0224 21.609 35.035 21.5988C35.0476 21.5885 35.061 21.5795 35.0752 21.5715C35.0894 21.5635 35.1043 21.5568 35.1196 21.5514C35.1351 21.5459 35.1508 21.5418 35.1669 21.5391C35.183 21.5363 35.1992 21.5349 35.2155 21.5349H40.9897C42.8048 21.5349 44.1553 22.0199 45.0044 22.9793C45.858 23.9427 46.1214 25.2895 45.7879 26.9822C45.6517 27.6718 45.4183 28.3122 45.0934 28.8858C44.768 29.4598 44.3383 29.991 43.8157 30.4647C43.1899 31.0421 42.4818 31.4609 41.7127 31.7073C40.9557 31.9504 39.9837 32.0739 38.8235 32.0739H36.4837L35.8161 35.4614C35.813 35.4772 35.8085 35.4926 35.8028 35.5077C35.797 35.5227 35.7898 35.5372 35.7815 35.5511C35.7731 35.5649 35.7637 35.578 35.753 35.5902C35.7423 35.6025 35.7308 35.6137 35.7181 35.624C35.7055 35.6343 35.6921 35.6434 35.6779 35.6513C35.6637 35.6593 35.6489 35.666 35.6335 35.6714C35.6181 35.6769 35.6024 35.6809 35.5862 35.6838C35.5702 35.6864 35.5539 35.6878 35.5376 35.6878H32.5348L32.5362 35.6877Z" fill="black"/>
<path d="M38.2634 24.5194H39.8531C41.1223 24.5194 41.5633 24.7942 41.7131 24.9578C41.9619 25.2296 42.0087 25.8026 41.8488 26.6147C41.6694 27.524 41.3365 28.1689 40.8598 28.5309C40.3715 28.9016 39.5779 29.0895 38.501 29.0895H37.3629L38.2634 24.5194ZM40.99 21.2552H35.2157C35.183 21.2552 35.1506 21.2581 35.1184 21.2635C35.0863 21.269 35.0548 21.2773 35.024 21.2882C34.9932 21.2991 34.9637 21.3125 34.9353 21.3284C34.9069 21.3444 34.88 21.3625 34.8548 21.3831C34.8297 21.4036 34.8063 21.4261 34.7851 21.4504C34.7638 21.4749 34.7449 21.5011 34.7281 21.5288C34.7114 21.5565 34.6972 21.5853 34.6855 21.6154C34.674 21.6455 34.665 21.6764 34.6588 21.7081L31.9793 35.3021C31.9754 35.3224 31.9726 35.3428 31.9709 35.3632C31.9692 35.3837 31.9686 35.4042 31.9692 35.4248C31.9698 35.4454 31.9716 35.4658 31.9744 35.4862C31.9774 35.5066 31.9813 35.5267 31.9865 35.5467C31.9916 35.5667 31.9978 35.5862 32.0052 35.6055C32.0125 35.6247 32.0208 35.6436 32.0302 35.6619C32.0397 35.6803 32.0501 35.698 32.0616 35.7152C32.073 35.7325 32.0854 35.7489 32.0986 35.7648C32.1118 35.7807 32.126 35.7959 32.1409 35.8101C32.1558 35.8244 32.1716 35.8379 32.188 35.8506C32.2045 35.8632 32.2216 35.8749 32.2393 35.8857C32.2572 35.8964 32.2755 35.9063 32.2943 35.915C32.3132 35.9237 32.3324 35.9314 32.3523 35.9382C32.372 35.9448 32.3919 35.9504 32.4123 35.9549C32.4327 35.9594 32.4532 35.9628 32.4739 35.965C32.4947 35.9673 32.5155 35.9684 32.5363 35.9684H35.5393C35.5719 35.9684 35.6044 35.9657 35.6366 35.9603C35.6688 35.9546 35.7001 35.9465 35.7309 35.9355C35.7617 35.9247 35.7913 35.9113 35.8197 35.8953C35.8481 35.8794 35.8749 35.8613 35.9001 35.8407C35.9254 35.8202 35.9486 35.7977 35.9698 35.7732C35.9912 35.7488 36.0102 35.7227 36.0269 35.695C36.0435 35.6673 36.0577 35.6384 36.0694 35.6083C36.0811 35.5782 36.0901 35.5474 36.0963 35.5157L36.7192 32.3545H38.8235C40.0135 32.3545 41.0153 32.2265 41.8009 31.9742C42.6086 31.7155 43.352 31.2766 44.0098 30.6698C44.5539 30.1765 45.0018 29.6226 45.3412 29.0232C45.6808 28.424 45.9248 27.7555 46.0666 27.0366C46.4179 25.2548 46.1324 23.828 45.2182 22.7962C44.3128 21.7743 42.8903 21.2561 40.99 21.2561M36.6742 29.6499H38.5007C39.7113 29.6499 40.6131 29.4251 41.2056 28.9751C41.798 28.5253 42.198 27.7743 42.4055 26.7222C42.6044 25.7119 42.514 24.9991 42.1341 24.5837C41.7545 24.1683 40.9935 23.9606 39.8529 23.9606H37.7956L36.6744 29.6497M40.99 21.8156C42.7272 21.8156 43.9945 22.2651 44.791 23.1642C45.5875 24.0632 45.8272 25.3183 45.5094 26.9297C45.3786 27.5935 45.1574 28.2003 44.846 28.7503C44.5346 29.3001 44.1271 29.8034 43.6239 30.2596C43.0243 30.813 42.3582 31.2071 41.6252 31.4423C40.8921 31.6777 39.9587 31.795 38.8238 31.795H36.2517L35.5395 35.4089H32.5366L35.2158 21.8156H40.9902" fill="white"/>
<defs>
<radialGradient id="paint0_radial_25_1368" cx="0" cy="0" r="1" gradientUnits="userSpaceOnUse" gradientTransform="translate(16.5556 19.0164) scale(34.3373 33.8604)">
<stop stop-color="#AEB2D5"/>
<stop offset="0.25" stop-color="#AEB2D5"/>
<stop offset="0.296875" stop-color="#AEB2D5"/>
<stop offset="0.300781" stop-color="#ADB1D4"/>
<stop offset="0.304688" stop-color="#ACB0D4"/>
<stop offset="0.308594" stop-color="#ACB0D3"/>
<stop offset="0.3125" stop-color="#ABAFD2"/>
<stop offset="0.316406" stop-color="#AAAED2"/>
<stop offset="0.320312" stop-color="#A9ADD1"/>
<stop offset="0.324219" stop-color="#A8ACD1"/>
<stop offset="0.328125" stop-color="#A7ABD0"/>
<stop offset="0.332031" stop-color="#A6AACF"/>
<stop offset="0.335938" stop-color="#A5A9CF"/>
<stop offset="0.339844" stop-color="#A4A9CE"/>
<stop offset="0.34375" stop-color="#A4A8CD"/>
<stop offset="0.347656" stop-color="#A3A7CD"/>
<stop offset="0.351562" stop-color="#A2A6CC"/>
<stop offset="0.355469" stop-color="#A1A5CB"/>
<stop offset="0.359375" stop-color="#A0A4CB"/>
<stop offset="0.363281" stop-color="#9FA3CA"/>
<stop offset="0.367188" stop-color="#9EA2C9"/>
<stop offset="0.371094" stop-color="#9DA1C9"/>
<stop offset="0.375" stop-color="#9CA1C8"/>
<stop offset="0.378906" stop-color="#9CA0C7"/>
<stop offset="0.382812" stop-color="#9B9FC7"/>
<stop offset="0.386719" stop-color="#9A9EC6"/>
<stop offset="0.390625" stop-color="#999DC5"/>
<stop offset="0.394531" stop-color="#989CC5"/>
<stop offset="0.398438" stop-color="#979BC4"/>
<stop offset="0.402344" stop-color="#969AC3"/>
<stop offset="0.40625" stop-color="#9599C3"/>
<stop offset="0.410156" stop-color="#9499C2"/>
<stop offset="0.414062" stop-color="#9498C1"/>
<stop offset="0.417969" stop-color="#9397C1"/>
<stop offset="0.421875" stop-color="#9296C0"/>
<stop offset="0.425781" stop-color="#9195BF"/>
<stop offset="0.429688" stop-color="#9094BF"/>
<stop offset="0.433594" stop-color="#8F93BE"/>
<stop offset="0.4375" stop-color="#8E92BD"/>
<stop offset="0.441406" stop-color="#8D91BD"/>
<stop offset="0.445312" stop-color="#8D91BC"/>
<stop offset="0.449219" stop-color="#8C90BB"/>
<stop offset="0.453125" stop-color="#8B8FBB"/>
<stop offset="0.457031" stop-color="#8A8EBA"/>
<stop offset="0.460938" stop-color="#898DB9"/>
<stop offset="0.464844" stop-color="#888CB9"/>
<stop offset="0.46875" stop-color="#878BB8"/>
<stop offset="0.472656" stop-color="#868AB7"/>
<stop offset="0.476562" stop-color="#858AB7"/>
<stop offset="0.480469" stop-color="#8589B6"/>
<stop offset="0.484375" stop-color="#8488B5"/>
<stop offset="0.488281" stop-color="#8387B5"/>
<stop offset="0.492188" stop-color="#8286B4"/>
<stop offset="0.496094" stop-color="#8185B3"/>
<stop offset="0.5" stop-color="#8084B3"/>
<stop offset="0.503906" stop-color="#7F83B2"/>
<stop offset="0.507812" stop-color="#7E82B1"/>
<stop offset="0.511719" stop-color="#7D82B1"/>
<stop offset="0.515625" stop-color="#7D81B0"/>
<stop offset="0.519531" stop-color="#7C80B0"/>
<stop offset="0.523438" stop-color="#7B7FAF"/>
<stop offset="0.527344" stop-color="#7A7EAE"/>
<stop offset="0.53125" stop-color="#797DAE"/>
<stop offset="0.535156" stop-color="#787CAD"/>
<stop offset="0.539062" stop-color="#777BAC"/>
<stop offset="0.542969" stop-color="#767AAC"/>
<stop offset="0.546875" stop-color="#767AAB"/>
<stop offset="0.550781" stop-color="#7579AA"/>
<stop offset="0.554688" stop-color="#7478AA"/>
<stop offset="0.558594" stop-color="#7377A9"/>
<stop offset="0.5625" stop-color="#7276A8"/>
<stop offset="0.566406" stop-color="#7175A8"/>
<stop offset="0.570312" stop-color="#7074A7"/>
<stop offset="0.574219" stop-color="#6F73A6"/>
<stop offset="0.578125" stop-color="#6E73A6"/>
<stop offset="0.582031" stop-color="#6E72A5"/>
<stop offset="0.585938" stop-color="#6D71A4"/>
<stop offset="0.589844" stop-color="#6C70A4"/>
<stop offset="0.59375" stop-color="#6B6FA3"/>
<stop offset="0.597656" stop-color="#6A6EA2"/>
<stop offset="0.601562" stop-color="#696DA2"/>
<stop offset="0.605469" stop-color="#686CA1"/>
<stop offset="0.609375" stop-color="#676BA0"/>
<stop offset="0.613281" stop-color="#666BA0"/>
<stop offset="0.617188" stop-color="#666A9F"/>
<stop offset="0.621094" stop-color="#65699E"/>
<stop offset="0.625" stop-color="#64689E"/>
<stop offset="0.628906" stop-color="#63679D"/>
<stop offset="0.632812" stop-color="#62669C"/>
<stop offset="0.636719" stop-color="#61659C"/>
<stop offset="0.640625" stop-color="#60649B"/>
<stop offset="0.644531" stop-color="#5F639A"/>
<stop offset="0.648438" stop-color="#5E639A"/>
<stop offset="0.652344" stop-color="#5E6299"/>
<stop offset="0.65625" stop-color="#5D6198"/>
<stop offset="0.660156" stop-color="#5C6098"/>
<stop offset="0.664062" stop-color="#5B5F97"/>
<stop offset="0.667969" stop-color="#5A5E96"/>
<stop offset="0.671875" stop-color="#595D96"/>
<stop offset="0.675781" stop-color="#585C95"/>
<stop offset="0.679688" stop-color="#575B94"/>
<stop offset="0.683594" stop-color="#575B94"/>
<stop offset="0.6875" stop-color="#565A93"/>
<stop offset="0.691406" stop-color="#555992"/>
<stop offset="0.695312" stop-color="#545892"/>
<stop offset="0.699219" stop-color="#535791"/>
<stop offset="0.703125" stop-color="#525691"/>
<stop offset="0.707031" stop-color="#515590"/>
<stop offset="0.710938" stop-color="#50548F"/>
<stop offset="0.714844" stop-color="#4F548F"/>
<stop offset="0.71875" stop-color="#4F538E"/>
<stop offset="0.722656" stop-color="#4E528D"/>
<stop offset="0.726562" stop-color="#4D518D"/>
<stop offset="0.730469" stop-color="#4C508C"/>
<stop offset="0.734375" stop-color="#4B4F8B"/>
<stop offset="0.738281" stop-color="#4A4E8B"/>
<stop offset="0.742188" stop-color="#494D8A"/>
<stop offset="0.746094" stop-color="#484C89"/>
<stop offset="1" stop-color="#484C89"/>
</radialGradient>
</defs>
</svg>
