<svg width="688" height="403" viewBox="0 0 688 403" fill="none" xmlns="http://www.w3.org/2000/svg">
<rect x="134.3" y="77.1253" width="444" height="277" rx="18" fill="url(#paint0_linear_269_298)" fill-opacity="0.2" stroke="url(#paint1_linear_269_298)" stroke-width="4"/>
<path opacity="0.2" d="M132.3 115.125L580.3 115.125" stroke="white" stroke-width="3"/>
<circle cx="487.3" cy="98.1253" r="9" fill="#FFB3B3"/>
<circle cx="516.3" cy="98.1253" r="9" fill="#FFF845"/>
<circle cx="545.3" cy="98.1253" r="9" fill="#ABD464"/>
<g clip-path="url(#clip0_269_298)">
<path d="M486.119 187.393C486.119 187.393 469.327 173.443 426.242 179.281C383.158 185.119 367.583 202.13 366.296 203.628C366.296 203.628 344.193 217.55 345.454 266.052L346.442 325.85C346.442 325.85 350.402 430.772 456.585 414.067C562.627 397.546 535.475 297.422 535.475 297.422L522.244 246.237C522.244 246.237 508.958 198.188 486.119 187.393Z" fill="#F9591A"/>
<path d="M375.374 393.945C375.374 393.945 379.751 333.419 441.95 322.012C504.148 310.604 525.712 374.402 525.712 374.402C525.712 374.402 511.834 403.931 456.737 415.204C401.64 426.477 375.374 393.945 375.374 393.945Z" fill="#ECD136"/>
<path d="M399.884 337.813C399.884 337.813 446.588 370.887 441.743 386.443C436.739 388.611 431.831 390.27 427.205 391.559C396.008 399.594 375.09 388.19 363.467 378.176C355.972 371.742 352.348 365.776 352.348 365.776C352.348 365.776 340.998 337.017 355.719 325.917C370.44 314.816 399.884 337.813 399.884 337.813Z" fill="#F9591A"/>
<path d="M398.316 339.681C407.111 345.939 415.67 352.891 423.482 360.442C428.828 365.678 434.935 371.638 438.04 378.667C438.519 379.761 439.412 381.461 439.426 382.784C439.128 385.473 439.159 384.476 436.808 385.456C430.266 388.495 422.55 390.203 415.537 390.988C393.566 393.799 371.767 385.66 357.526 368.551C350.808 360.521 347.179 342.305 353.424 332.188C363.168 316.133 387.977 331.81 398.316 339.681C400.9 341.648 403.852 337.772 401.267 335.804C390.167 327.209 370.831 315.26 356.579 322.489C342.024 329.925 343.734 353.533 349.747 366.128C358.275 383.846 382.141 395.016 400.555 396.494C407.582 397.032 414.801 396.551 421.748 395.278C427.232 394.204 438.613 392.662 442.54 388.653C446.932 384.416 442.882 376.521 439.988 372.278C430.556 357.662 415.21 345.835 401.289 335.967C398.704 333.999 395.753 337.876 398.316 339.681Z" fill="#A03C06"/>
<path d="M363.282 348.733C358.857 357.61 363.444 378.014 363.444 378.014Z" fill="#A03C06"/>
<path d="M361.014 347.881C356.958 357.04 358.914 369.026 361.027 378.507C361.771 381.552 366.649 380.891 365.905 377.846C364.064 369.156 361.893 358.027 365.572 349.747C366.823 346.763 362.265 344.898 361.014 347.881Z" fill="#A03C06"/>
<path d="M486.543 326.068C486.543 326.068 450.33 370.377 459.142 384.083C464.543 384.842 469.716 385.134 474.519 385.146C506.589 384.773 523.716 368.215 532.393 355.285C537.905 347.088 539.809 340.373 539.809 340.373C539.809 340.373 543.092 309.631 525.946 302.849C508.801 296.066 486.543 326.068 486.543 326.068Z" fill="#FC4619"/>
<path d="M484.675 324.5C475.03 336.403 465.539 349.443 459.336 363.528C456.93 368.986 453.058 378.286 456.497 384.111C459.021 388.073 465.015 387.096 469.352 387.336C477.17 387.601 485.062 387.194 492.593 385.345C513.464 380.531 536.488 363.504 541.959 341.572C545.042 328.903 541.083 308.248 529.088 301.595C512.631 292.567 493.647 312.523 484.675 324.5C482.707 327.084 486.747 330.014 488.552 327.451C495.719 318.037 509.054 302.82 522.014 304.375C536.134 305.938 539.796 329.282 537.541 339.521C533.581 357.938 514.164 373.482 497.349 378.906C490.838 380.948 484.031 382.035 477.277 382.288C473.656 382.448 469.991 382.282 466.326 382.117C463.659 381.981 461.752 382.571 460.652 380.568C457.996 375.63 463.871 365.231 466.106 360.955C472.271 349.028 480.172 337.692 488.714 327.429C490.541 325.03 486.664 322.078 484.675 324.5Z" fill="#A03C06"/>
<path d="M524.732 326.853C531.361 334.232 532.372 355.121 532.372 355.121Z" fill="#A03C06"/>
<path d="M522.957 328.418C528.707 335.42 529.74 346.703 530.118 355.592C530.211 358.725 535.088 358.064 534.995 354.931C534.507 345.229 533.202 333.155 526.853 325.407C524.69 322.885 520.794 325.897 522.957 328.418Z" fill="#A03C06"/>
<path d="M514.986 342.908C521.541 350.96 519.598 369.599 519.598 369.599Z" fill="#A03C06"/>
<path d="M513.027 344.332C517.899 350.957 517.965 361.212 517.234 369.257C517.003 372.434 521.894 373.096 522.125 369.919C523.005 360.529 522.784 349.136 516.924 341.321C515.086 338.756 511.189 341.767 513.027 344.332Z" fill="#A03C06"/>
<path d="M500.507 355.797C505.106 361.63 505.461 370.356 504.436 377.448C504.042 380.647 508.933 381.309 509.327 378.11C510.664 369.651 509.97 359.647 504.404 352.785C502.403 350.242 498.529 353.416 500.507 355.797Z" fill="#A03C06"/>
<path d="M389.868 298.115C408.275 295.621 421.174 278.678 418.679 260.272C416.183 241.866 399.238 228.967 380.831 231.461C362.423 233.955 349.524 250.897 352.02 269.304C354.516 287.71 371.461 300.609 389.868 298.115Z" fill="white"/>
<path d="M387.265 272.806C398.04 271.347 405.59 261.429 404.129 250.655C402.668 239.88 392.749 232.33 381.974 233.789C371.199 235.249 363.649 245.167 365.11 255.941C366.571 266.716 376.49 274.266 387.265 272.806Z" fill="black"/>
<path d="M383.917 254.221C387.06 253.795 389.262 250.903 388.836 247.76C388.41 244.618 385.517 242.415 382.374 242.841C379.231 243.267 377.029 246.16 377.455 249.302C377.881 252.445 380.774 254.647 383.917 254.221Z" fill="white"/>
<path d="M482.543 285.555C500.95 283.061 513.849 266.119 511.353 247.712C508.858 229.306 491.912 216.407 473.505 218.901C455.098 221.395 442.199 238.338 444.695 256.744C447.19 275.15 464.135 288.049 482.543 285.555Z" fill="white"/>
<path d="M479.94 260.247C490.715 258.787 498.265 248.869 496.804 238.095C495.343 227.321 485.424 219.77 474.649 221.23C463.874 222.69 456.324 232.608 457.785 243.382C459.246 254.156 469.165 261.707 479.94 260.247Z" fill="black"/>
<path d="M476.592 241.662C479.734 241.236 481.937 238.343 481.51 235.201C481.084 232.058 478.191 229.856 475.049 230.282C471.906 230.708 469.704 233.6 470.13 236.743C470.556 239.885 473.449 242.088 476.592 241.662Z" fill="white"/>
<path d="M434.489 275.511C439.697 274.806 442.389 262.952 440.502 249.036C438.615 235.119 432.864 224.41 427.656 225.116C422.448 225.821 419.756 237.675 421.643 251.591C423.53 265.508 429.281 276.217 434.489 275.511Z" fill="#EAD91D"/>
</g>
<path d="M292.099 190.335C293.639 187.668 293.317 184.086 291.382 181.701L291.39 181.702C291.429 181.685 291.269 181.19 291.294 181.14C293.403 180.001 292.685 177.081 291.646 175.42C289.1 171.066 283.327 169.587 278.994 172.171C278.883 165.468 272.184 161.875 266.403 165.001C266.88 159.101 260.115 155.101 255.4 158.907C256.483 152.947 249.718 148.945 244.766 152.193C245.03 145.919 237.98 141.353 232.422 144.604C232.715 139.233 227.721 134.517 222.367 135.108C220.531 135.272 218.6 136.28 218.636 138.121C218.707 138.163 218.035 138.283 218.105 138.325C212.013 137.059 206.869 144.049 209.897 149.474C204.272 149.929 200.412 156.539 202.621 161.709C200.527 161.979 198.435 162.948 197.025 164.555C195.072 166.822 194.651 170.226 195.793 172.964C193.208 173.669 191.049 175.797 190.186 178.308C189.212 182.702 192.941 189.231 199.035 188.92C198.612 196.026 205.533 200.472 211.745 196.894C211.538 202.555 217.086 208.021 222.408 205.452C221.65 209.141 227.383 212.904 230.334 210.143C231.577 214.968 238.62 218.397 242.969 215.377C242.807 218.224 244.222 221.095 246.545 222.745C249.311 224.739 253.282 224.483 256.075 222.685C259.548 229.742 267.893 229.978 270.947 223.205C271.708 221.556 272.1 219.654 271.651 217.869C277.301 217.192 280.397 211.71 278.265 206.486C283.88 205.913 287.813 199.438 285.524 194.242C288.193 194.195 290.772 192.643 292.099 190.335Z" fill="#EBB308"/>
<path d="M257.069 220.827C251.415 224.72 243.536 220.398 243.992 213.515C239.625 216.604 232.499 212.942 231.383 208.279C228.343 210.943 222.884 207.529 223.475 203.584C219.319 205.912 212.743 201.895 212.836 195.021C207.055 198.703 199.516 193.931 200.147 187.126C200.108 187.099 200.067 187.072 200.028 187.045C193.541 187.182 191.015 180.614 191.134 177.494C190.991 177.378 190.851 177.257 190.715 177.132C189.962 178.54 189.909 179.555 190.204 181.104C191.038 185.396 194.437 189.142 199.062 188.883C198.818 192.28 200.58 195.954 203.773 197.361C206.298 198.502 209.388 198.333 211.745 196.862C211.699 199.256 212.543 201.662 214.168 203.426C216.162 205.658 219.658 206.956 222.384 205.425C221.61 209.133 227.41 212.879 230.293 210.12C231.58 214.997 238.552 218.364 242.901 215.357C242.733 218.326 244.271 221.319 246.763 222.93C249.511 224.712 253.287 224.403 255.979 222.669C259.527 229.694 267.013 229.557 270.133 224.44C270.388 224.038 270.618 223.619 270.818 223.187C267.525 227.728 260.462 227.559 257.069 220.827Z" fill="#331706"/>
<path d="M259.868 211.912C258.451 211.607 257.763 214.197 257.479 215.23C256.781 216.776 259.006 216.694 259.78 216.685C260.746 216.572 262.458 216.309 263.006 215.458C263.479 214.176 260.665 212.062 259.868 211.912Z" fill="#662F0D"/>
<path d="M266.935 199.999C265.518 199.694 264.83 202.284 264.546 203.317C263.848 204.862 266.073 204.781 266.847 204.771C267.813 204.659 269.525 204.395 270.073 203.544C270.546 202.262 267.732 200.149 266.935 199.999Z" fill="#662F0D"/>
<path d="M274.085 187.946C272.668 187.641 271.98 190.231 271.696 191.264C270.998 192.81 273.222 192.728 273.997 192.719C274.963 192.606 276.675 192.343 277.223 191.492C277.695 190.21 274.882 188.096 274.085 187.946Z" fill="#662F0D"/>
<path d="M280.78 176.66C279.362 176.355 278.675 178.945 278.39 179.978C277.693 181.524 279.917 181.442 280.692 181.433C281.658 181.32 283.37 181.057 283.918 180.206C284.39 178.923 281.577 176.81 280.78 176.66Z" fill="#662F0D"/>
<path d="M247.878 204.808C246.461 204.503 245.773 207.093 245.488 208.126C244.791 209.671 247.015 209.589 247.79 209.58C248.756 209.468 250.468 209.204 251.016 208.353C251.488 207.071 248.675 204.957 247.878 204.808Z" fill="#662F0D"/>
<path d="M254.945 192.894C253.528 192.589 252.84 195.179 252.555 196.212C251.858 197.757 254.082 197.676 254.857 197.667C255.823 197.554 257.535 197.29 258.083 196.44C258.555 195.158 255.742 193.044 254.945 192.894Z" fill="#662F0D"/>
<path d="M262.094 180.841C260.677 180.537 259.989 183.126 259.705 184.159C259.007 185.705 261.232 185.623 262.006 185.614C262.972 185.501 264.684 185.238 265.232 184.387C265.704 183.105 262.891 180.992 262.094 180.841Z" fill="#662F0D"/>
<path d="M268.789 169.555C267.372 169.25 266.685 171.84 266.4 172.873C265.703 174.419 267.927 174.337 268.702 174.328C269.667 174.215 271.379 173.952 271.927 173.101C272.4 171.819 269.586 169.705 268.789 169.555Z" fill="#662F0D"/>
<path d="M237.281 198.529C235.864 198.224 235.177 200.814 234.892 201.847C234.194 203.393 236.419 203.311 237.194 203.302C238.159 203.189 239.871 202.925 240.419 202.075C240.892 200.792 238.078 198.679 237.281 198.529Z" fill="#662F0D"/>
<path d="M247.486 190.161C247.958 188.879 245.145 186.766 244.348 186.615C242.931 186.31 242.243 188.9 241.958 189.933C241.261 191.479 243.485 191.397 244.26 191.388C245.226 191.276 246.938 191.012 247.486 190.161Z" fill="#662F0D"/>
<path d="M251.41 179.336C252.376 179.223 254.088 178.96 254.636 178.109C255.109 176.827 252.295 174.713 251.498 174.563C250.081 174.258 249.393 176.848 249.108 177.881C248.411 179.426 250.635 179.344 251.41 179.336Z" fill="#662F0D"/>
<path d="M258.105 168.05C259.071 167.937 260.783 167.674 261.331 166.823C261.804 165.54 258.99 163.427 258.193 163.277C256.776 162.972 256.088 165.562 255.804 166.595C255.106 168.14 257.33 168.058 258.105 168.05Z" fill="#662F0D"/>
<path d="M226.825 192.333C225.407 192.028 224.72 194.618 224.435 195.651C223.738 197.196 225.962 197.115 226.737 197.105C227.703 196.993 229.415 196.729 229.963 195.879C230.435 194.596 227.621 192.483 226.825 192.333Z" fill="#662F0D"/>
<path d="M237.029 183.966C237.502 182.684 234.688 180.57 233.891 180.42C232.474 180.115 231.786 182.705 231.501 183.738C230.804 185.283 233.028 185.201 233.803 185.192C234.769 185.08 236.481 184.816 237.029 183.966Z" fill="#662F0D"/>
<path d="M240.953 173.14C241.919 173.027 243.631 172.764 244.179 171.913C244.652 170.63 241.838 168.517 241.041 168.367C239.624 168.062 238.936 170.652 238.651 171.685C237.954 173.23 240.178 173.148 240.953 173.14Z" fill="#662F0D"/>
<path d="M247.648 161.853C248.614 161.741 250.326 161.477 250.874 160.627C251.347 159.344 248.533 157.231 247.736 157.081C246.319 156.776 245.631 159.365 245.347 160.398C244.649 161.944 246.873 161.862 247.648 161.853Z" fill="#662F0D"/>
<path d="M215.949 185.889C214.532 185.584 213.844 188.174 213.56 189.207C212.862 190.753 215.087 190.671 215.861 190.662C216.827 190.549 218.539 190.286 219.087 189.435C219.559 188.153 216.746 186.039 215.949 185.889Z" fill="#662F0D"/>
<path d="M226.154 177.522C226.627 176.239 223.813 174.126 223.016 173.976C221.599 173.671 220.911 176.26 220.627 177.294C219.929 178.839 222.153 178.757 222.928 178.748C223.894 178.636 225.606 178.372 226.154 177.522Z" fill="#662F0D"/>
<path d="M230.078 166.696C231.044 166.583 232.756 166.32 233.304 165.469C233.776 164.187 230.963 162.073 230.166 161.923C228.748 161.618 228.061 164.208 227.776 165.241C227.079 166.786 229.303 166.705 230.078 166.696Z" fill="#662F0D"/>
<path d="M236.773 155.41C237.739 155.297 239.451 155.034 239.999 154.183C240.471 152.901 237.658 150.787 236.861 150.637C235.443 150.332 234.756 152.922 234.471 153.955C233.774 155.5 235.998 155.418 236.773 155.41Z" fill="#662F0D"/>
<path d="M202.982 178.206C201.565 177.901 200.877 180.491 200.593 181.524C199.895 183.07 202.12 182.988 202.895 182.979C203.86 182.866 205.572 182.603 206.12 181.752C206.593 180.47 203.78 178.356 202.982 178.206Z" fill="#662F0D"/>
<path d="M210.049 166.293C208.632 165.988 207.944 168.578 207.66 169.611C206.962 171.156 209.187 171.075 209.961 171.066C210.927 170.953 212.639 170.689 213.187 169.839C213.66 168.556 210.846 166.443 210.049 166.293Z" fill="#662F0D"/>
<path d="M217.111 159.013C218.077 158.9 219.789 158.637 220.337 157.786C220.809 156.504 217.996 154.39 217.199 154.24C215.781 153.935 215.094 156.525 214.809 157.558C214.112 159.103 216.336 159.022 217.111 159.013Z" fill="#662F0D"/>
<path d="M223.806 147.727C224.772 147.614 226.484 147.351 227.032 146.5C227.505 145.218 224.691 143.104 223.894 142.954C222.477 142.649 221.789 145.239 221.504 146.272C220.807 147.817 223.031 147.735 223.806 147.727Z" fill="#662F0D"/>
<defs>
<linearGradient id="paint0_linear_269_298" x1="-41.5" y1="-103" x2="459.3" y2="384.125" gradientUnits="userSpaceOnUse">
<stop stop-color="white"/>
<stop offset="0.848813" stop-color="white" stop-opacity="0.3"/>
</linearGradient>
<linearGradient id="paint1_linear_269_298" x1="580.3" y1="346.125" x2="149.3" y2="16.1253" gradientUnits="userSpaceOnUse">
<stop stop-color="white"/>
<stop offset="1" stop-color="white" stop-opacity="0"/>
</linearGradient>
<clipPath id="clip0_269_298">
<rect width="267" height="195" fill="white" transform="translate(275 157)"/>
</clipPath>
</defs>
</svg>
