<svg width="54" height="54" viewBox="0 0 54 54" fill="none" xmlns="http://www.w3.org/2000/svg">
<g clip-path="url(#clip0_11_282)">
<path d="M45.3094 21.4733C45.2251 19.6171 45.4782 17.9718 44.6344 16.5796C42.6094 13.1202 37.5469 11.0952 27.4219 11.0952C17.2969 11.0952 11.9813 13.1202 9.9563 16.6218C9.15474 18.0562 9.23911 19.6593 9.11255 21.5155C9.02818 22.9921 8.35318 24.553 8.64849 26.2405C8.98599 28.4343 9.11255 30.628 9.45005 32.653C9.70318 34.2983 11.9813 35.6905 12.1922 37.2515C12.7829 41.5546 17.2547 43.5374 27.3797 43.5374V43.8749H27.1266H27.1688H27.4219V43.5374C37.5469 43.5374 41.8501 41.5546 42.3985 37.2515C42.6094 35.6483 44.7188 34.2983 44.9719 32.653C45.3094 30.628 45.436 28.4343 45.7735 26.2405C46.0688 24.553 45.3938 22.9499 45.3094 21.4733Z" fill="#EFCCA3"/>
<path d="M27.2531 22.9922C29.0671 23.0344 30.3328 24.1734 31.514 25.2281C32.9062 26.4516 35.2687 27.2953 36.239 28.35C37.2093 29.4047 38.475 30.4594 38.939 32.1047C39.4031 33.75 39.5296 35.8594 39.5296 36.4078C39.5296 36.9563 39.825 36.8297 40.6687 36.4078C42.6515 35.4375 44.8453 32.8219 44.8453 32.8219C44.5921 34.4672 42.4406 35.9438 42.2296 37.5047C41.7234 41.8078 37.5468 43.875 27.2109 43.875H27.1687H27.4218" fill="#CCAC8D"/>
<path d="M33.9187 19.7014C34.2983 21.0092 35.6483 25.4389 33.0327 23.9623C33.0327 23.9623 34.1296 24.5951 34.8046 26.9998C35.5218 29.4045 37.2515 29.6998 37.2515 29.6998C37.2515 29.6998 40.078 30.2482 42.1874 28.4342C43.9593 26.9154 44.2546 24.2154 43.4952 22.1482C42.7358 20.1232 41.3858 19.4904 39.403 19.0685C37.4202 18.6045 33.4546 18.2248 33.9187 19.7014Z" fill="#CCAC8D"/>
<path d="M38.9391 28.2233C40.9894 28.2233 42.6516 26.5612 42.6516 24.5108C42.6516 22.4605 40.9894 20.7983 38.9391 20.7983C36.8887 20.7983 35.2266 22.4605 35.2266 24.5108C35.2266 26.5612 36.8887 28.2233 38.9391 28.2233Z" fill="black"/>
<path d="M37.9688 23.8359C38.5047 23.8359 38.9392 23.4015 38.9392 22.8656C38.9392 22.3297 38.5047 21.8953 37.9688 21.8953C37.433 21.8953 36.9985 22.3297 36.9985 22.8656C36.9985 23.4015 37.433 23.8359 37.9688 23.8359Z" fill="white"/>
<path d="M33.2858 24.342C33.2858 24.342 36.6187 26.6202 38.4327 28.8561C40.2468 31.092 40.2046 31.5139 40.2046 31.5139L38.8968 32.1045C38.8968 32.1045 37.0405 28.603 34.7624 27.2952C32.4421 25.9874 32.189 24.8905 32.189 24.8905L33.2858 24.342Z" fill="#EFCCA3"/>
<path d="M27.3797 22.9922C25.5656 23.0344 24.2156 24.1734 22.9922 25.2281C21.6 26.4516 19.1531 27.2953 18.1828 28.35C17.2125 29.4047 15.9047 30.4594 15.4406 32.1047C14.9766 33.75 14.8078 35.8594 14.8078 36.4078C14.8078 36.9563 14.8922 36.9984 13.6688 36.4078C11.6859 35.4797 9.49219 32.8219 9.49219 32.8219C9.74531 34.4672 11.8969 35.9438 12.1078 37.5047C12.6984 41.8078 16.875 43.875 27.2109 43.875H27.2531H27.4219" fill="#CCAC8D"/>
<path d="M37.1672 30.1219C35.1422 27.6328 31.8938 25.3125 27.3797 25.3125H27.3375C22.8235 25.3125 19.575 27.6328 17.55 30.1219C15.4407 32.6953 15.6094 33.7078 15.6094 36.1547C15.6094 45.0141 18.7313 42.4828 20.7985 43.5797C22.9078 44.6344 25.1016 44.2969 27.3375 44.2969H27.3797C29.6578 44.2969 31.8094 44.5922 33.9188 43.5375C35.986 42.4828 39.1078 45.0984 39.1078 36.2391C39.15 33.7922 39.2766 32.6953 37.1672 30.1219Z" fill="#56332B"/>
<path d="M27.1687 27.5061C27.1687 27.5061 26.8733 31.5983 26.2827 32.3999L27.3796 32.1467L27.1687 27.5061Z" fill="#442823"/>
<path d="M27.4641 27.5061C27.4641 27.5061 27.7594 31.5983 28.35 32.3999L27.2532 32.1467L27.4641 27.5061Z" fill="#442823"/>
<path d="M23.9203 26.5358C23.4984 25.5655 25.0172 24.0046 27.4219 23.9624C29.8265 23.9624 31.3453 25.5233 30.9234 26.5358C30.5016 27.5483 28.9828 27.8437 27.4219 27.8858C25.9031 27.8437 24.3422 27.5483 23.9203 26.5358Z" fill="#56332B"/>
<path d="M27.4218 27.5061C27.4218 27.3373 28.8562 27.2951 29.6156 26.7889C29.6156 26.7889 28.0546 27.2951 27.7171 27.0842C27.3796 26.9154 27.2953 26.4092 27.2953 26.4092C27.2953 26.4092 27.1687 26.9154 26.9156 27.0842C26.6203 27.2529 24.8484 26.7889 24.8484 26.7889C24.8484 26.7889 27.2109 27.3795 27.2109 27.5061C27.2109 27.6326 27.1687 28.0545 27.1687 28.3498C27.1687 29.4045 27.1687 32.0201 27.3375 32.2311C27.5906 32.6107 27.5062 29.4045 27.5062 28.3498C27.464 28.0123 27.464 27.6748 27.4218 27.5061Z" fill="black"/>
<path d="M27.5062 33.1593C28.2234 33.1593 29.489 33.6655 30.6281 34.4671C29.5312 33.2436 28.2234 32.3999 27.5062 32.3999C26.7468 32.3999 25.1437 33.328 24.0046 34.678C25.1859 33.7499 26.7046 33.1593 27.5062 33.1593Z" fill="#7F4A41"/>
<path d="M27.2109 40.6265C25.6078 40.6265 24.0469 40.1203 22.6125 39.7406C22.3172 39.6562 22.0219 39.8671 21.7266 39.7828C19.0687 38.939 16.9172 37.5046 15.6094 35.6906C15.6094 35.8171 15.6094 35.9859 15.6094 36.1124C15.6094 44.9718 18.7312 42.4828 20.7984 43.5374C22.9078 44.5921 25.1016 44.2546 27.3375 44.2546H27.3797C29.6578 44.2546 31.8094 44.5499 33.9188 43.4953C35.9859 42.4406 39.1078 45.014 39.1078 36.1546C39.1078 35.8171 39.1078 35.4796 39.15 35.1843C37.9266 37.1671 35.6906 38.7281 32.9062 39.6562C32.6531 39.7406 32.0625 39.5296 31.8094 39.5718C30.2906 40.0781 28.9406 40.6265 27.2109 40.6265Z" fill="#442823"/>
<path d="M23.2031 35.8594C23.2031 35.8594 22.1484 39.0234 22.8656 40.4156L21.8953 39.9938C21.8953 39.9938 22.6125 36.7875 23.2031 35.8594Z" fill="#442823"/>
<path d="M31.5562 35.8594C31.5562 35.8594 32.6108 39.0234 31.8937 40.4156L32.864 39.9938C32.864 39.9938 32.1046 36.7875 31.5562 35.8594Z" fill="#442823"/>
<path d="M20.5032 19.7014C20.1235 21.0092 18.7735 25.4389 21.3892 23.9623C21.3892 23.9623 20.2923 24.5951 19.6173 26.9998C18.9423 29.4045 17.1704 29.6998 17.1704 29.6998C17.1704 29.6998 14.3439 30.2482 12.2345 28.4342C10.4626 26.9154 10.1673 24.2154 10.9267 22.1482C11.686 20.081 13.036 19.4904 15.0189 19.0685C17.0017 18.6045 20.9251 18.2248 20.5032 19.7014Z" fill="#CCAC8D"/>
<path d="M27.3798 32.4C28.5188 32.4 32.0626 34.8469 32.1048 37.8422C32.1048 37.8 32.1048 37.7578 32.1048 37.6734C32.1048 34.5516 29.236 32.0625 27.3798 32.0625C25.5235 32.0625 22.6548 34.5938 22.6548 37.6734C22.6548 37.7156 22.6548 37.7578 22.6548 37.8422C22.697 34.8469 26.2407 32.4 27.3798 32.4Z" fill="black"/>
<path d="M28.3005 26.5587C28.481 26.5122 28.5566 26.2001 28.4693 25.8617C28.3821 25.5233 28.165 25.2867 27.9845 25.3332C27.804 25.3798 27.7285 25.6918 27.8157 26.0302C27.903 26.3686 28.1201 26.6053 28.3005 26.5587Z" fill="#331712"/>
<path d="M26.1322 26.5525C26.3102 26.6077 26.5385 26.3819 26.642 26.0481C26.7456 25.7143 26.6852 25.3989 26.5072 25.3437C26.3291 25.2884 26.1009 25.5143 25.9973 25.8481C25.8938 26.1819 25.9541 26.4972 26.1322 26.5525Z" fill="#331712"/>
<path d="M15.6937 28.2233C17.7441 28.2233 19.4062 26.5612 19.4062 24.5108C19.4062 22.4605 17.7441 20.7983 15.6937 20.7983C13.6433 20.7983 11.9812 22.4605 11.9812 24.5108C11.9812 26.5612 13.6433 28.2233 15.6937 28.2233Z" fill="black"/>
<path d="M16.6639 23.8359C17.1998 23.8359 17.6342 23.4015 17.6342 22.8656C17.6342 22.3297 17.1998 21.8953 16.6639 21.8953C16.128 21.8953 15.6936 22.3297 15.6936 22.8656C15.6936 23.4015 16.128 23.8359 16.6639 23.8359Z" fill="white"/>
<path d="M28.4767 24.553C28.4767 24.5108 27.5063 24.9749 27.2532 25.0171C27.0001 24.9749 26.0298 24.5108 26.0298 24.553C26.0298 24.553 26.8313 24.553 27.2532 24.553C27.6751 24.553 28.4767 24.553 28.4767 24.553Z" fill="#7F4A41"/>
<path d="M21.0939 24.342C21.0939 24.342 17.7611 26.6202 15.947 28.8561C14.1329 31.092 14.1751 31.5139 14.1751 31.5139L15.4829 32.1045C15.4829 32.1045 17.3392 28.603 19.6173 27.2952C21.8954 25.9874 22.1908 24.8905 22.1908 24.8905L21.0939 24.342Z" fill="#EFCCA3"/>
<path d="M13.7953 17.592C13.7953 17.592 12.6563 20.7139 10.125 22.0217C10.125 22.0217 14.0906 21.5577 13.7953 17.592Z" fill="#CCAC8D"/>
<path d="M40.4156 17.592C40.4156 17.592 41.5547 20.7139 44.0859 22.0217C44.0859 22.0217 40.1203 21.5577 40.4156 17.592Z" fill="#CCAC8D"/>
<path d="M33.2015 23.4139C33.2015 23.4139 30.7124 20.7982 27.3796 20.7139C27.3374 20.7139 27.464 20.7139 27.4218 20.7139C27.3796 20.7139 27.464 20.7139 27.464 20.7139C24.089 20.7982 21.6421 23.4139 21.6421 23.4139C24.553 21.3889 27.0421 21.4311 27.464 21.4311C27.4218 21.4311 30.2905 21.3889 33.2015 23.4139Z" fill="#CCAC8D"/>
<path d="M30.2907 17.9295C30.2907 17.9295 29.0251 16.1577 27.3376 16.1155H27.3797H27.4219C26.1563 16.1577 24.511 17.9295 24.511 17.9295C25.9454 16.5374 27.4219 16.5795 27.4219 16.5795C27.4219 16.5795 28.8141 16.5374 30.2907 17.9295Z" fill="#CCAC8D"/>
<path d="M15.6938 30.8811C15.6938 30.8811 13.7109 31.8515 12.2766 31.2608H12.2344C10.9688 30.5437 10.3359 28.3921 10.3359 28.3921C10.3359 28.3921 11.6016 32.189 15.6938 30.8811Z" fill="#CCAC8D"/>
<path d="M38.8125 30.8811C38.8125 30.8811 40.7953 31.8515 42.2297 31.2608C43.9172 30.5437 44.1703 28.3921 44.1703 28.3921C44.1703 28.3921 42.9047 32.189 38.8125 30.8811Z" fill="#CCAC8D"/>
<path d="M17.9719 17.3812C19.0688 17.1703 20.8829 17.1281 22.3172 17.5922C24.1313 18.225 22.6547 20.5453 23.0344 20.6719C23.4141 20.7984 23.9204 19.0687 27.2954 19.2375C30.7125 19.4062 31.0922 20.925 31.5563 20.6719C32.0204 20.4187 31.0922 16.4531 36.1969 17.3812C36.1969 17.3812 30.8391 15.9469 31.0922 19.8281C31.0922 19.8281 28.0125 17.4656 23.7094 19.575C23.7516 19.575 24.8485 15.9469 17.9719 17.3812Z" fill="#CCAC8D"/>
<path d="M36.6609 17.3811C36.7453 17.3811 36.7875 17.4233 36.8296 17.4233C36.8718 17.4233 36.7875 17.3811 36.6609 17.3811Z" fill="#CCAC8D"/>
<path d="M16.4953 12.1921C16.4953 12.1921 11.9391 17.9296 11.2641 20.1234C10.5891 22.3593 10.0828 31.514 9.49219 32.8218L7.38281 23.7937L11.2641 14.3859L16.4953 12.1921Z" fill="#CCAC8D"/>
<path d="M37.9265 12.1921C37.9265 12.1921 42.4828 17.9296 43.1578 20.1234C43.8328 22.3593 44.339 31.514 44.9296 32.8218L47.039 23.7937L43.1578 14.3859L37.9265 12.1921Z" fill="#CCAC8D"/>
<path d="M37.7156 12.1922C37.7156 12.1922 42.6094 16.2844 44.0437 21.0094C45.4781 25.7344 44.8875 31.4719 45.9844 32.189C47.5453 33.2015 49.3172 27.1687 49.9078 26.5359C50.8359 25.5234 53.9156 22.95 54.1265 22.4859C54.3375 22.0219 47.8828 14.9765 45.0562 13.5844C41.639 11.9812 37.4203 11.8547 37.7156 12.1922Z" fill="#56332B"/>
<path d="M41.8921 14.7234C41.8921 14.7234 47.6718 22.1062 47.5874 31.3031L49.9077 26.5781C49.8655 26.5781 47.8405 20.5453 41.8921 14.7234Z" fill="#442823"/>
<path d="M16.4953 12.1922C16.4953 12.1922 11.6016 16.2844 10.1672 21.0094C8.73283 25.7344 9.32346 31.4719 8.22658 32.189C6.66564 33.2015 4.89377 27.1687 4.30314 26.5359C3.37502 25.5234 0.295331 22.95 0.0843937 22.4859C-0.126544 22.0219 6.32814 14.9765 9.15471 13.5844C12.5719 11.9812 16.7906 11.8547 16.4953 12.1922Z" fill="#56332B"/>
<path d="M12.3187 14.7234C12.3187 14.7234 6.53896 22.1062 6.62334 31.3031L4.34521 26.5781C4.34521 26.5781 6.37022 20.5453 12.3187 14.7234Z" fill="#442823"/>
<path d="M9.19678 31.4717C9.19678 31.4717 9.61865 33.7498 10.2937 34.467C10.9687 35.1842 10.5046 33.9185 10.5046 33.9185C10.5046 33.9185 9.7874 33.5388 9.91397 30.6279C10.0405 27.717 9.19678 31.4717 9.19678 31.4717Z" fill="#CCAC8D"/>
<path d="M45.1828 31.4717C45.1828 31.4717 44.761 33.7498 44.086 34.467C43.411 35.1842 43.875 33.9185 43.875 33.9185C43.875 33.9185 44.5922 33.5388 44.4657 30.6279C44.3391 27.717 45.1828 31.4717 45.1828 31.4717Z" fill="#CCAC8D"/>
<path d="M22.9923 30.0795C23.1787 30.0795 23.3298 29.9284 23.3298 29.742C23.3298 29.5556 23.1787 29.4045 22.9923 29.4045C22.8059 29.4045 22.6548 29.5556 22.6548 29.742C22.6548 29.9284 22.8059 30.0795 22.9923 30.0795Z" fill="#442823"/>
<path d="M21.0516 32.1044C21.238 32.1044 21.3891 31.9533 21.3891 31.7669C21.3891 31.5805 21.238 31.4294 21.0516 31.4294C20.8652 31.4294 20.7141 31.5805 20.7141 31.7669C20.7141 31.9533 20.8652 32.1044 21.0516 32.1044Z" fill="#442823"/>
<path d="M20.4188 30.0795C20.6052 30.0795 20.7563 29.9284 20.7563 29.742C20.7563 29.5556 20.6052 29.4045 20.4188 29.4045C20.2324 29.4045 20.0813 29.5556 20.0813 29.742C20.0813 29.9284 20.2324 30.0795 20.4188 30.0795Z" fill="#442823"/>
<path d="M31.2188 30.0795C31.4052 30.0795 31.5564 29.9284 31.5564 29.742C31.5564 29.5556 31.4052 29.4045 31.2188 29.4045C31.0325 29.4045 30.8813 29.5556 30.8813 29.742C30.8813 29.9284 31.0325 30.0795 31.2188 30.0795Z" fill="#442823"/>
<path d="M33.1595 32.1044C33.3459 32.1044 33.497 31.9533 33.497 31.7669C33.497 31.5805 33.3459 31.4294 33.1595 31.4294C32.9731 31.4294 32.822 31.5805 32.822 31.7669C32.822 31.9533 32.9731 32.1044 33.1595 32.1044Z" fill="#442823"/>
<path d="M33.7923 30.0795C33.9787 30.0795 34.1298 29.9284 34.1298 29.742C34.1298 29.5556 33.9787 29.4045 33.7923 29.4045C33.6059 29.4045 33.4548 29.5556 33.4548 29.742C33.4548 29.9284 33.6059 30.0795 33.7923 30.0795Z" fill="#442823"/>
</g>
<defs>
<clipPath id="clip0_11_282">
<rect width="54" height="54" fill="white"/>
</clipPath>
</defs>
</svg>
