<svg width="156" height="46" viewBox="0 0 156 46" fill="none" xmlns="http://www.w3.org/2000/svg">
<g clip-path="url(#clip0_228_85)">
<path d="M125.533 39.686H31.2188L38.7414 47.1354L125.533 39.686Z" fill="#68F522"/>
<path d="M140.673 34.937V20.0382C140.673 17.2447 142.647 14.9167 145.468 14.9167C148.289 14.9167 150.264 17.2447 150.264 20.0382V34.937H156.094V20.0382C156.094 13.8925 151.863 8.95723 145.656 8.95723C142.835 8.95723 140.673 10.5402 140.673 10.5402V9.51593H134.843V34.8439H140.673V34.937Z" fill="#68F522"/>
<path d="M121.396 8.86412C114.626 8.86412 109.83 14.7305 109.83 22.1799C109.83 30.0018 115.848 35.4957 121.96 35.4957C125.063 35.4957 128.919 34.4714 132.21 29.8155L127.038 26.8358C123.089 32.6091 116.412 29.7224 115.66 23.856H132.398C133.902 14.9167 127.978 8.86412 121.396 8.86412ZM126.474 18.9208H116.036C117.259 13.0544 125.345 12.6819 126.474 18.9208Z" fill="#68F522"/>
<path d="M107.949 28.8844C107.385 29.2569 106.727 29.5363 105.975 29.5363C105.034 29.5363 103.248 28.7913 103.248 26.4634V15.5686H108.232V9.51601H103.248V3.18403H97.4178V9.51601H94.3147V15.5686H97.4178V26.4634C97.4178 32.1435 101.743 35.4958 106.069 35.4958C107.667 35.4958 109.924 34.9371 111.711 33.9128L107.949 28.8844Z" fill="#68F522"/>
<path d="M86.51 9.51595V24.4147C86.51 27.2083 84.5353 29.5362 81.7143 29.5362C78.8933 29.5362 76.9186 27.2083 76.9186 24.4147V9.51595H71.0886V24.4147C71.0886 30.5605 75.3201 35.4957 81.5262 35.4957C84.3472 35.4957 86.51 33.9127 86.51 33.9127V34.8439H92.34V9.51595H86.51Z" fill="#68F522"/>
<path d="M60.1808 21.435L70.1483 9.51597H62.0615L55.009 18.3621V1.1354H49.085V34.937H55.009V24.5079L63.66 34.937H71.7468L60.1808 21.435Z" fill="#68F522"/>
<path d="M39.9638 9.51594V10.6334C38.1772 9.51594 36.6727 8.86412 34.51 8.86412C27.9277 8.86412 22.8499 14.8236 22.8499 22.1799C22.8499 29.5362 27.8336 35.4957 34.51 35.4957C36.6727 35.4957 38.2713 34.8439 39.9638 33.7265V34.8439H45.7939V9.51594H39.9638ZM34.4159 29.4431C31.1248 29.4431 28.774 26.2771 28.774 22.273C28.774 18.269 31.1248 15.103 34.4159 15.103C37.7071 15.103 39.9638 18.269 39.9638 22.273C40.0579 26.2771 37.7071 29.4431 34.4159 29.4431Z" fill="#68F522"/>
<path d="M6.11212 34.9371V25.0666H10.3436L17.7722 34.8439H25.3888L16.3617 23.018C19.1826 21.0626 20.9693 17.8035 20.9693 14.0788C20.9693 8.02613 15.9855 3.18403 9.96745 3.18403H0V34.8439H6.11212V34.9371ZM6.11212 9.23666H10.0615C12.7884 9.23666 15.0452 11.4715 15.0452 14.1719C15.0452 16.8723 12.7884 19.1071 10.0615 19.1071H6.11212V9.23666Z" fill="#68F522"/>
</g>
<defs>
<clipPath id="clip0_228_85">
<rect width="156" height="46" fill="white"/>
</clipPath>
</defs>
</svg>
