<svg width="258" height="46" viewBox="0 0 258 46" fill="none" xmlns="http://www.w3.org/2000/svg">
<path d="M39.7131 19.7458V18.008H46.3481V0H0V19.7458L6.61078 26.3115V28.0494H0V46.0573H46.3481V26.3115L39.7131 19.7458Z" fill="#68F522"/>
<path d="M106.984 32.0329C110.046 32.0329 112.234 30.1017 112.234 26.5542C112.234 23.0056 110.046 21.0744 106.984 21.0744H106.473C103.339 21.0744 100.933 23.0056 100.933 26.5542C100.933 30.1017 103.339 32.0329 106.473 32.0329H106.984ZM96.1197 42.6785V17.6221H100.908V19.867C102.172 18.2496 104.627 17.2597 107.616 17.2597C112.865 17.2597 117.07 20.7607 117.07 26.5774C117.07 32.709 112.841 35.8719 107.689 35.8719C104.31 35.8719 102.074 34.6644 100.908 33.1442V42.6542H96.1197V42.6785Z" fill="#68F522"/>
<path d="M69.5104 27.1084H74.7353C74.882 30.0537 77.4338 31.5021 81.4683 31.5021H82.0513C86.1102 31.5021 87.7874 30.2946 87.7874 28.6297C87.7874 27.0123 86.4989 26.0467 83.1688 25.5153L79.2324 24.8635C73.4721 23.8979 70.9203 21.8949 70.9203 17.5012C70.9203 13.6389 74.1523 10.0903 81.6141 10.0903C88.6133 10.0903 92.7937 13.2522 93.2795 18.322H88.0546C87.6902 15.8595 85.43 14.4597 81.8813 14.4597H81.3226C77.8224 14.4597 75.9266 15.6662 75.9266 17.1874C75.9266 18.9496 77.1908 19.6975 79.9369 20.1571L83.9715 20.8078C89.8776 21.7734 92.7936 24.3564 92.7936 28.4606C92.7936 33.2156 88.9048 35.8715 81.8084 35.8715C74.2494 35.8715 69.6075 32.9262 69.5104 27.1084Z" fill="#68F522"/>
<path d="M127.544 32.034C130.022 32.034 132.793 31.0199 132.793 28.7021V27.5918L127.811 27.9541C124.991 28.1717 123.995 28.9683 123.995 30.1029C123.995 31.3093 124.869 32.034 127.032 32.034H127.544ZM119.183 30.5856C119.183 26.5057 122.463 24.864 126.668 24.5989L132.793 24.1646V23.7294C132.793 22.0159 131.286 21.0746 128.685 21.0746H128.102C126.182 21.0746 124.748 21.8226 124.529 23.1505H119.669C120.033 19.7467 123.46 17.2366 128.345 17.2366C134.251 17.2366 137.386 20.0604 137.386 24.0432V31.5512C137.386 32.613 137.483 34.2304 137.629 35.4854H133.206C133.036 34.5927 132.963 32.8306 132.963 32.6616C132.137 34.279 129.852 35.8477 126.644 35.8477C121.856 35.872 119.183 33.6514 119.183 30.5856Z" fill="#68F522"/>
<path d="M140.283 26.5543C140.283 21.3398 144.099 17.2366 150.661 17.2366C155.813 17.2366 159.41 19.771 159.993 23.8509H155.133C154.768 22.0887 153.115 21.0503 150.928 21.0503H150.418C146.845 21.0503 145.119 23.6333 145.119 26.53C145.119 29.4268 146.845 32.0097 150.418 32.0097H150.928C153.115 32.0097 154.744 30.8023 155.133 29.2091H159.993C159.41 33.0472 155.813 35.8235 150.661 35.8235C143.733 35.8721 140.283 32.034 140.283 26.5543Z" fill="#68F522"/>
<path d="M176.638 24.4049C176.493 21.9667 174.597 21.074 172.434 21.074H171.924C169.372 21.074 167.743 22.329 167.136 24.4049H176.638ZM181.645 28.0739H167.038C167.646 30.7531 169.785 32.0567 172.045 32.0567H172.555C174.572 32.0567 176.055 31.2601 176.565 29.8846H181.426C180.746 33.6022 177.1 35.8947 172.385 35.8947C166.552 35.8947 162.031 32.7085 162.031 26.4565C162.031 20.3979 167.16 17.2835 172.191 17.2835C178.097 17.2835 181.645 20.7845 181.645 26.1913V28.0739Z" fill="#68F522"/>
<path d="M183.616 29.6195H188.478C188.623 31.3087 190.349 32.0567 192.415 32.0567H192.925C195.161 32.0567 196.522 31.6225 196.522 30.585C196.522 29.8603 195.938 29.4018 193.897 29.0152L190.908 28.4363C186.946 27.6397 184.492 26.2156 184.492 22.8604C184.492 19.239 188.137 17.2835 192.682 17.2835C198.637 17.2835 201.432 19.7461 201.723 23.5598H196.863C196.717 22.2086 195.38 21.1216 192.925 21.1216H192.415C190.398 21.1216 189.304 21.7015 189.304 22.5223C189.304 23.246 189.765 23.6326 191.977 24.0669L194.797 24.5983C198.807 25.3462 201.359 26.915 201.359 30.3674C201.359 33.6984 198.442 35.919 192.682 35.919C186.97 35.8714 183.835 33.4332 183.616 29.6195Z" fill="#68F522"/>
<path d="M204.664 35.5094V10.4529H209.452V20.2291C210.643 18.5388 212.66 17.2595 215.82 17.2595C220.899 17.2595 223.524 20.3738 223.524 24.6228V35.5094H218.736V25.4912C218.736 22.8839 217.618 21.0985 215.09 21.0985H214.58C211.907 21.0985 209.428 23.2463 209.428 26.5054V35.5336H204.664V35.5094Z" fill="#68F522"/>
<path d="M227.363 17.6218H232.151V35.5094H227.363V17.6218ZM227.193 10.4529H232.346V15.4255H227.193V10.4529Z" fill="#68F522"/>
<path d="M247.416 32.0329C250.478 32.0329 252.665 30.1017 252.665 26.5542C252.665 23.0056 250.478 21.0744 247.416 21.0744H246.906C243.77 21.0744 241.364 23.0056 241.364 26.5542C241.364 30.1017 243.77 32.0329 246.906 32.0329H247.416ZM236.552 42.6785V17.6221H241.34V19.867C242.604 18.2496 245.059 17.2597 248.048 17.2597C253.298 17.2597 257.478 20.7607 257.478 26.5774C257.478 32.709 253.274 35.8719 248.121 35.8719C244.743 35.8719 242.507 34.6644 241.34 33.1442V42.6542H236.552V42.6785Z" fill="#68F522"/>
</svg>
