<svg width="397" height="46" viewBox="0 0 397 46" fill="none" xmlns="http://www.w3.org/2000/svg">
<path d="M9.95224 8.35754L14.2015 18.7902L18.339 8.35754H27.173L20.212 22.6253L27.9837 37.7208H18.9261L13.9499 26.4065L8.97379 37.7208H0L7.8276 22.4881L1.03436 8.35754H9.95224Z" fill="#68F522"/>
<path d="M47.2453 8.35754V37.7208H39.0262V8.35754H47.2453Z" fill="#68F522"/>
<path d="M61.1673 8.35754H73.1046L77.2696 18.3493C80.5687 26.2155 81.379 28.5029 82.4137 31.3731C82.4137 29.8008 82.05 22.5175 82.05 18.0163V8.35754H89.85V37.7208H78.0527L74.5581 29.6931C71.5111 22.7086 70.0849 19.04 68.6314 15.0677C68.7152 17.0514 68.9946 25.6914 68.9946 27.871V37.7208H61.1673V8.35754Z" fill="#68F522"/>
<path d="M130.022 21.5772C130.05 22.8457 130.05 23.9233 130.05 24.3641C130.05 27.6506 129.883 30.462 129.603 31.9559C129.184 34.0767 127.45 36.0947 125.354 36.9763C123.76 37.6376 121.887 37.9412 119.846 37.9412H114.591C110.313 37.9412 108.161 37.28 106.204 35.4335C103.828 33.1951 103.045 30.3543 103.045 23.8155C103.045 17.2719 103.492 14.24 104.946 12.1143C106.288 10.0963 108.357 8.80323 110.789 8.33303C111.907 8.13711 115.066 8 118.393 8C123.481 8 126.052 8.69063 127.87 10.4833C129.352 11.9772 129.799 13.5739 129.826 17.3012H121.943C121.915 15.0384 120.993 14.5682 116.576 14.5682C112.158 14.5682 111.432 15.5085 111.432 22.2677C111.432 26.8473 111.684 29.2229 112.242 30.1045C112.774 30.9322 113.892 31.2898 115.932 31.2898C119.846 31.2898 121.244 31.1282 121.859 30.3249C122.251 29.7469 122.278 29.4971 122.335 26.9894H117.806V21.5233H130.078L130.022 21.5772Z" fill="#68F522"/>
<path d="M144.112 8.35754H150.318L160.243 33.582L170.083 8.35754H176.205V37.7208H172.795V10.8996L162.228 37.7208H158.202L147.551 10.8996V37.7208H144.14V8.35754H144.112Z" fill="#68F522"/>
<path d="M216.993 27.538C216.993 31.6228 216.462 33.7486 214.924 35.3747C213.023 37.471 210.927 38 204.301 38C197.312 38 195.411 37.5837 193.538 35.6539C191.972 34.0228 191.274 31.76 191.274 28.1453V16.3363C191.274 13.5494 192.14 11.4482 193.901 10.018C194.88 9.18532 196.333 8.55346 197.815 8.35754C198.765 8.19591 201.729 8.11263 205.028 8.11263C210.144 8.11263 211.765 8.38692 213.498 9.46447C214.952 10.3461 216.042 11.9478 216.49 13.711C216.909 15.4253 216.993 16.7477 216.993 20.4212V27.5673V27.538ZM213.582 20.3086C213.582 15.3714 213.303 13.6571 212.464 12.609C211.849 11.8645 210.814 11.3698 209.417 11.1739C208.662 11.0661 207.152 11.0073 204.692 11.0073C198.598 11.0073 197.731 11.12 196.529 11.9478C195.131 12.9127 194.684 14.3771 194.684 17.6343V26.4898C194.684 30.9077 195.103 32.7004 196.306 33.8025C197.451 34.8261 198.57 34.9877 203.686 34.9877C209.584 34.9877 210.311 34.9094 211.514 34.1061C213.163 33.0041 213.582 31.5935 213.582 26.8768V20.3086Z" fill="#68F522"/>
<path d="M245.228 8.35754C249.03 8.35754 250.707 8.69064 252.273 9.71432C254.174 10.9241 254.733 12.3347 254.733 15.8955C254.733 18.6824 254.454 19.8139 253.419 20.8865C252.692 21.631 251.993 21.9934 250.596 22.4342C251.993 22.6546 252.972 23.0661 253.894 23.9771C255.041 25.1085 255.516 26.7102 255.516 29.4433C255.516 33.3323 254.649 35.3502 252.357 36.6188C250.791 37.471 249.198 37.7208 244.613 37.7208H232.117V8.35754H245.284H245.228ZM247.241 21.0825C248.471 21.0825 249.506 20.8033 250.148 20.1421C250.987 19.3976 251.322 18.4865 251.322 16.1159C251.322 13.52 250.931 12.6384 249.953 11.9771C249.198 11.5069 248.135 11.2866 246.57 11.2866H235.472V21.0825H247.241ZM245.592 34.7134C251.099 34.7134 252.049 33.9983 252.049 29.36C252.049 26.7102 251.686 25.5788 250.596 24.8049C249.897 24.2808 248.75 24.0066 247.465 24.0066H235.443V34.7134H245.592Z" fill="#68F522"/>
<path d="M270.164 8.35754H273.575V37.7208H270.164V8.35754Z" fill="#68F522"/>
<path d="M292.753 8.35754V34.6302H309.806V37.7208H289.314V8.35754H292.753Z" fill="#68F522"/>
<path d="M322.694 8.35754H326.104V37.7208H322.694V8.35754Z" fill="#68F522"/>
<path d="M361.021 8.35754V11.4481H351.488V37.7208H348.077V11.4481H338.573V8.35754H361.021Z" fill="#68F522"/>
<path d="M381.345 37.7208V25.4122L369.352 8.35754H373.545L383.134 22.16L392.918 8.35754H397L384.951 25.4122V37.7208H381.345Z" fill="#68F522"/>
</svg>
